<svg width="29" height="26" viewBox="0 0 29 26" fill="none" xmlns="http://www.w3.org/2000/svg">
<path d="M0.859636 8.44699C0.746983 8.44762 0.63542 8.42514 0.531975 8.38097C0.42853 8.3368 0.335445 8.27189 0.258586 8.19034C0.177425 8.11349 0.11271 8.02125 0.0682937 7.91912C0.0238772 7.817 0.000667345 7.70706 4.5953e-05 7.59587C-0.000839561 7.48445 0.0216872 7.37406 0.0661957 7.27172C0.110704 7.16939 0.176221 7.07733 0.258586 7.0014C0.334202 6.91884 0.427566 6.85413 0.531797 6.81204C0.742677 6.73089 0.976609 6.73089 1.18749 6.81204C1.28926 6.85781 1.38147 6.92203 1.45936 7.0014C1.54191 7.07726 1.60764 7.16927 1.65237 7.27161C1.6971 7.37394 1.71987 7.48436 1.71923 7.59587C1.71221 7.8194 1.61939 8.03187 1.45968 8.19001C1.29997 8.34814 1.08539 8.44004 0.859636 8.44699Z" fill="white"/>
<path d="M10.6857 9.78438C10.4594 9.77205 10.2473 9.67122 10.0961 9.50406C9.9449 9.33691 9.86695 9.11712 9.8794 8.89306C9.89214 8.66903 9.99418 8.45917 10.1631 8.3096C10.332 8.16002 10.554 8.08297 10.7803 8.09538C10.8924 8.10147 11.0021 8.1294 11.1033 8.17756C11.2044 8.22572 11.2949 8.29316 11.3697 8.37602C11.4445 8.45889 11.502 8.55554 11.539 8.66046C11.576 8.76537 11.5917 8.87648 11.5853 8.98742C11.5705 9.20332 11.4735 9.40563 11.314 9.55355C11.1545 9.70146 10.9442 9.78397 10.7257 9.78444L10.6857 9.78438ZM24.8776 9.01442C24.8484 8.90792 24.8407 8.79673 24.8551 8.68729C24.8695 8.57784 24.9058 8.47232 24.9617 8.37683C25.0175 8.28134 25.092 8.19778 25.1808 8.13099C25.2695 8.06419 25.3708 8.0155 25.4786 7.98773C25.6975 7.92883 25.931 7.95836 26.1279 8.06982C26.3249 8.18128 26.469 8.36556 26.5288 8.5822C26.5583 8.68958 26.5657 8.80173 26.5506 8.912C26.5355 9.02226 26.4981 9.12841 26.4409 9.22414C26.3836 9.31987 26.3075 9.40325 26.217 9.46933C26.1266 9.53541 26.0237 9.58284 25.9144 9.60883C25.8451 9.63541 25.7715 9.64927 25.6972 9.64973C25.5086 9.64939 25.3256 9.58669 25.1771 9.47159C25.0286 9.35649 24.9232 9.19559 24.8776 9.01442ZM22.708 9.39248C22.5028 9.30133 22.3413 9.13503 22.2573 8.92848C22.1733 8.72193 22.1734 8.49119 22.2576 8.2847C22.3012 8.18245 22.3649 8.08976 22.4449 8.01195C22.5249 7.93413 22.6196 7.87274 22.7237 7.83129C22.8277 7.78985 22.939 7.76916 23.0511 7.77043C23.1632 7.77169 23.274 7.79489 23.377 7.83867H23.3904C23.5962 7.92887 23.7577 8.09604 23.8396 8.30369C23.9215 8.51134 23.9172 8.74264 23.8275 8.94711C23.7635 9.09927 23.6555 9.22923 23.5169 9.3206C23.3784 9.41196 23.2156 9.46062 23.0492 9.46042C22.9323 9.45761 22.8169 9.43462 22.708 9.39248ZM12.5688 8.69047C12.469 8.48752 12.4529 8.25404 12.5241 8.03958C12.5953 7.82512 12.748 7.64655 12.9499 7.54178C13.1519 7.44488 13.3838 7.42872 13.5975 7.49666C13.8111 7.56459 13.9902 7.71141 14.0974 7.90661C14.1959 8.10841 14.2125 8.3399 14.1438 8.55345C14.0751 8.767 13.9264 8.94637 13.7282 9.05464C13.6035 9.10877 13.4687 9.13642 13.3325 9.1358C13.1769 9.13433 13.0245 9.09241 12.8905 9.01425C12.7565 8.93609 12.6455 8.82445 12.5688 8.69047ZM7.76439 8.67662C7.57983 8.55155 7.45217 8.35981 7.40881 8.14257C7.36545 7.92533 7.40986 7.69991 7.5325 7.51474C7.59292 7.42182 7.67138 7.34172 7.76334 7.27909C7.85529 7.21645 7.95889 7.17253 8.06813 7.14988C8.17737 7.12722 8.29006 7.12629 8.39967 7.14712C8.50928 7.16796 8.61361 7.21016 8.70661 7.27126C8.80021 7.33121 8.88088 7.40895 8.94395 7.49997C9.00702 7.59099 9.05123 7.69349 9.07404 7.80154C9.09684 7.90959 9.09778 8.02104 9.07681 8.12946C9.05583 8.23787 9.01335 8.34109 8.95183 8.43314C8.87622 8.55102 8.77134 8.64774 8.64721 8.71404C8.52308 8.78035 8.38385 8.81402 8.24283 8.81185C8.07356 8.81308 7.90749 8.76615 7.76439 8.67662ZM20.2785 7.90665C20.1849 7.84663 20.1042 7.76884 20.0411 7.67776C19.978 7.58668 19.9338 7.48412 19.911 7.37602C19.8882 7.26792 19.8873 7.15641 19.9082 7.04795C19.9292 6.93948 19.9717 6.83621 20.0333 6.74411C20.1583 6.55612 20.3536 6.42497 20.5762 6.37944C20.7989 6.33392 21.0307 6.37774 21.2207 6.5013C21.4063 6.62555 21.5348 6.81736 21.5782 7.03498C21.6217 7.25259 21.5765 7.47838 21.4526 7.66318C21.3779 7.78221 21.273 7.87976 21.1484 7.94609C21.0237 8.01243 20.8837 8.04524 20.7423 8.04125C20.5777 8.04243 20.4164 7.99561 20.2785 7.90665ZM14.889 7.29832C14.8369 7.199 14.8051 7.09048 14.7954 6.97897C14.7857 6.86747 14.7982 6.75515 14.8324 6.64846C14.8666 6.54178 14.9216 6.4428 14.9945 6.35721C15.0673 6.27161 15.1565 6.20107 15.2568 6.14963C15.3561 6.09814 15.4647 6.06673 15.5764 6.05722C15.688 6.04772 15.8004 6.06031 15.9071 6.09427C16.0138 6.12823 16.1126 6.18287 16.1977 6.25501C16.2828 6.32715 16.3526 6.41535 16.403 6.51446C16.5073 6.71172 16.5286 6.94185 16.4622 7.1546C16.3958 7.36736 16.2471 7.54544 16.0485 7.64996C15.9262 7.71276 15.7904 7.74514 15.6527 7.7443C15.4967 7.74464 15.3435 7.70341 15.2091 7.62494C15.0748 7.54647 14.9642 7.43366 14.889 7.29832ZM5.60807 7.33922C5.3987 7.25243 5.23247 7.08722 5.1456 6.87959C5.05872 6.67196 5.05825 6.43875 5.14429 6.23078C5.23643 6.02753 5.40452 5.86752 5.61326 5.78435C5.82201 5.70118 6.05517 5.70133 6.26381 5.78475C6.36787 5.82704 6.46231 5.88954 6.54157 5.96857C6.62082 6.0476 6.68328 6.14155 6.72526 6.24487C6.76724 6.3482 6.78789 6.4588 6.78598 6.57016C6.78407 6.68151 6.75965 6.79136 6.71416 6.89322C6.65021 7.04537 6.54214 7.17534 6.40361 7.2667C6.26508 7.35807 6.10231 7.40673 5.93587 7.40653C5.82276 7.41003 5.71043 7.38698 5.60807 7.33922ZM2.45622 6.6227C2.39871 6.40606 2.42931 6.17573 2.54144 5.98118C2.65358 5.78663 2.8383 5.6434 3.05594 5.58224C3.27492 5.52512 3.5078 5.55541 3.70445 5.66659C3.90111 5.77777 4.04582 5.96095 4.10744 6.17671C4.16498 6.39353 4.13423 6.62405 4.02182 6.81864C3.9094 7.01324 3.72431 7.15635 3.50639 7.21717C3.43501 7.23297 3.36227 7.24202 3.28916 7.24419C3.10072 7.2453 2.91714 7.18507 2.76664 7.07278C2.61615 6.96048 2.50708 6.80236 2.45622 6.6227ZM18.2047 7.09577C18.0927 7.08973 17.9829 7.06183 17.8817 7.01369C17.7806 6.96555 17.69 6.89811 17.6152 6.81524C17.5404 6.73236 17.4829 6.63568 17.4459 6.53075C17.409 6.42581 17.3933 6.31468 17.3998 6.20373C17.4045 6.09358 17.4313 5.98545 17.4785 5.88561C17.5257 5.78577 17.5925 5.69619 17.6749 5.62206C17.7573 5.54794 17.8538 5.49074 17.9587 5.45377C18.0636 5.41681 18.1748 5.40081 18.286 5.40671H18.3007C18.5268 5.41963 18.7385 5.52079 18.8894 5.688C19.0403 5.85522 19.118 6.07485 19.1056 6.29875C19.0903 6.51446 18.9932 6.71645 18.8338 6.86426C18.6744 7.01206 18.4644 7.09476 18.246 7.09577H18.2047Z" fill="white"/>
<path d="M28.1534 8.44699C28.0409 8.44413 27.9298 8.4211 27.8256 8.37904C27.7216 8.33686 27.6283 8.27242 27.5524 8.19034C27.4726 8.11249 27.408 8.02079 27.3618 7.91982C27.317 7.81747 27.2938 7.70709 27.2938 7.59552C27.2938 7.48395 27.317 7.37357 27.3618 7.27122C27.4081 7.17045 27.4727 7.07897 27.5524 7.00136C27.6283 6.91908 27.7215 6.85442 27.8256 6.812C28.0365 6.73085 28.2704 6.73085 28.4813 6.812C28.5849 6.85445 28.6778 6.91912 28.7532 7.00136C28.9111 7.15969 28.9997 7.37328 28.9997 7.59583C28.9997 7.81838 28.9111 8.03197 28.7532 8.1903C28.6778 8.27234 28.5849 8.33679 28.4813 8.379C28.377 8.42108 28.266 8.44412 28.1534 8.44699Z" fill="white"/>
<path d="M4.9124 9.82528C4.79987 9.82242 4.6888 9.79939 4.58456 9.75733C4.47989 9.72358 4.3861 9.66303 4.31268 9.58183C4.23054 9.5042 4.16515 9.41087 4.12048 9.3075C4.07581 9.20413 4.05277 9.09286 4.05277 8.98043C4.05277 8.86799 4.07581 8.75672 4.12048 8.65335C4.16515 8.54998 4.23054 8.45666 4.31268 8.37903C4.39004 8.3025 4.48263 8.24274 4.58456 8.20353C4.714 8.14793 4.85551 8.12552 4.99601 8.13835C5.13652 8.15118 5.27149 8.19885 5.38849 8.27695C5.50548 8.35506 5.60072 8.46108 5.66542 8.58524C5.73011 8.7094 5.76218 8.84769 5.75867 8.98736C5.76073 9.09796 5.74222 9.20799 5.70408 9.31197C5.65292 9.40989 5.58883 9.50064 5.5135 9.58183C5.35012 9.73331 5.13616 9.81996 4.9124 9.82528Z" fill="white"/>
<path d="M11.3267 11.7037C11.2679 11.4888 11.2963 11.2596 11.4058 11.0652C11.5154 10.8707 11.6975 10.7265 11.9131 10.6632C12.1303 10.6032 12.3626 10.6305 12.5595 10.7392C12.7565 10.848 12.9021 11.0293 12.9646 11.2438C12.9974 11.3503 13.0082 11.4623 12.9962 11.573C12.9842 11.6838 12.9497 11.7909 12.8948 11.8881C12.8399 11.9853 12.7657 12.0705 12.6767 12.1386C12.5877 12.2067 12.4857 12.2562 12.3769 12.2843C12.3029 12.3122 12.2242 12.326 12.145 12.3252C11.9589 12.3237 11.7784 12.2622 11.6307 12.1501C11.4831 12.0379 11.3764 11.8812 11.3267 11.7037ZM9.25168 12.1629C9.04216 12.0834 8.87293 11.9251 8.78101 11.7224C8.6891 11.5198 8.68197 11.2894 8.76119 11.0815C8.80047 10.977 8.86042 10.8813 8.93755 10.8001C9.01467 10.7188 9.10741 10.6536 9.21032 10.6083C9.31323 10.563 9.42424 10.5386 9.53683 10.5363C9.64943 10.5341 9.76134 10.5541 9.86601 10.5953C10.0774 10.6764 10.2478 10.837 10.34 11.0421C10.4321 11.2472 10.4385 11.4801 10.3578 11.6899C10.2926 11.8486 10.1813 11.9847 10.0381 12.0809C9.89478 12.1771 9.72592 12.2291 9.55282 12.2302C9.44901 12.2272 9.34676 12.2042 9.25168 12.1629ZM21.2074 11.2438C21.1148 11.181 21.0357 11.1007 20.9745 11.0076C20.9134 10.9144 20.8715 10.8102 20.8512 10.7009C20.8308 10.5917 20.8326 10.4795 20.8562 10.3709C20.8798 10.2623 20.9249 10.1594 20.9888 10.0681C21.0523 9.97651 21.1334 9.89825 21.2275 9.8378C21.3217 9.77735 21.4269 9.73591 21.5372 9.71587C21.6476 9.69582 21.7608 9.69755 21.8705 9.72097C21.9802 9.7444 22.0841 9.78904 22.1763 9.85235C22.2682 9.91401 22.3468 9.99312 22.4076 10.0851C22.4684 10.177 22.5102 10.28 22.5305 10.3881C22.5508 10.4962 22.5493 10.6072 22.526 10.7146C22.5027 10.8221 22.4581 10.9239 22.3948 11.0142C22.3168 11.1301 22.2112 11.2253 22.0874 11.2913C21.9635 11.3574 21.8252 11.3923 21.6845 11.3929C21.5143 11.3896 21.3487 11.3378 21.2074 11.2438ZM13.7962 10.7846C13.7315 10.6935 13.6857 10.5906 13.6616 10.4819C13.6376 10.3731 13.6356 10.2607 13.656 10.1512C13.6764 10.0417 13.7186 9.93736 13.7802 9.84422C13.8418 9.75109 13.9215 9.67106 14.0148 9.60882C14.2014 9.48227 14.4311 9.434 14.6536 9.47455C14.8761 9.5151 15.0733 9.64117 15.2022 9.82524C15.327 10.011 15.374 10.2375 15.3332 10.4569C15.2924 10.6763 15.1671 10.8714 14.9836 11.001C14.8381 11.0964 14.6678 11.148 14.4932 11.1494C14.3555 11.1513 14.2194 11.1189 14.0977 11.0552C13.9759 10.9914 13.8722 10.8983 13.7962 10.7846ZM6.8235 10.7437C6.63861 10.6157 6.5111 10.4217 6.46784 10.2026C6.42459 9.98337 6.46896 9.75612 6.59161 9.56869C6.7182 9.38257 6.91424 9.25383 7.13665 9.21076C7.35905 9.16769 7.58963 9.2138 7.77772 9.33898C7.871 9.40094 7.95103 9.48049 8.01325 9.57309C8.07546 9.6657 8.11863 9.76953 8.14029 9.87866C8.16195 9.98779 8.16167 10.1001 8.13948 10.2091C8.11728 10.3181 8.07361 10.4218 8.01094 10.5141C7.93221 10.6283 7.82612 10.7214 7.70216 10.785C7.5782 10.8487 7.44024 10.8809 7.30061 10.8789C7.13169 10.8806 6.96592 10.8336 6.8235 10.7437ZM19.1324 10.0008C18.9194 9.92106 18.7469 9.76135 18.6523 9.55637C18.5578 9.35138 18.5487 9.1177 18.6273 8.90616C18.7092 8.69675 18.8716 8.52801 19.0789 8.43688C19.2862 8.34575 19.5216 8.33964 19.7334 8.4199C19.9429 8.49924 20.112 8.65749 20.2039 8.86002C20.2959 9.06255 20.303 9.29289 20.2239 9.50063C20.1647 9.6619 20.0572 9.80142 19.9157 9.90048C19.7742 9.99954 19.6055 10.0534 19.4322 10.0549C19.3302 10.0511 19.2292 10.0328 19.1324 10.0008ZM16.0205 9.36603C15.9877 9.25862 15.977 9.14579 15.9889 9.03421C16.0009 8.92262 16.0352 8.81452 16.09 8.71628C16.1447 8.61804 16.2188 8.53164 16.3078 8.46217C16.3968 8.3927 16.4989 8.34155 16.6082 8.31175H16.5949C16.7033 8.28059 16.8168 8.27092 16.9289 8.28329C17.0411 8.29565 17.1497 8.32981 17.2485 8.38381C17.3473 8.43782 17.4343 8.51059 17.5047 8.59797C17.575 8.68535 17.6273 8.78562 17.6584 8.89303C17.6913 8.99945 17.7022 9.11136 17.6903 9.22204C17.6784 9.33272 17.644 9.43988 17.5893 9.53707C17.5345 9.63426 17.4604 9.71948 17.3715 9.78761C17.2826 9.85573 17.1807 9.90535 17.072 9.93349C16.9979 9.96104 16.9193 9.97469 16.8401 9.97374C16.6558 9.97272 16.4767 9.91312 16.3291 9.80373C16.1816 9.69434 16.0734 9.54087 16.0205 9.36603Z" fill="white"/>
<path d="M24.1007 12.4598C23.9882 12.4569 23.8772 12.4341 23.7728 12.3925C23.6738 12.3471 23.5818 12.2881 23.4996 12.217C23.4161 12.1371 23.3511 12.0403 23.309 11.9333C23.2698 11.8296 23.2512 11.7193 23.2544 11.6086C23.2538 11.4985 23.2751 11.3892 23.3172 11.2872C23.3593 11.1852 23.4213 11.0924 23.4996 11.0142C23.5782 10.9385 23.671 10.8789 23.7728 10.8387C23.8753 10.7918 23.987 10.7674 24.0999 10.7674C24.2129 10.7674 24.3246 10.7918 24.4271 10.8387C24.5322 10.8725 24.6264 10.933 24.7003 11.0142C24.8209 11.1319 24.9034 11.2824 24.9373 11.4466C24.9712 11.6108 24.955 11.7813 24.8907 11.9364C24.8263 12.0914 24.7169 12.224 24.5762 12.3172C24.4355 12.4104 24.2699 12.4601 24.1007 12.4598Z" fill="white"/>
<path d="M0.859636 13.852C0.633688 13.8456 0.418758 13.7539 0.258924 13.5956C0.0990897 13.4374 0.00646524 13.2246 4.5953e-05 13.0009C-0.000839561 12.8894 0.0216872 12.779 0.0661957 12.6767C0.110704 12.5744 0.176221 12.4823 0.258586 12.4064C0.334202 12.3238 0.427566 12.2591 0.531797 12.217C0.742677 12.1359 0.976609 12.1359 1.18749 12.217C1.28926 12.2628 1.38147 12.327 1.45936 12.4064C1.54191 12.4822 1.60764 12.5743 1.65237 12.6766C1.6971 12.7789 1.71987 12.8893 1.71923 13.0009C1.71221 13.2244 1.61939 13.4369 1.45968 13.595C1.29997 13.7531 1.08539 13.845 0.859636 13.852Z" fill="white"/>
<path d="M10.6857 15.19C10.4602 15.1751 10.2496 15.0734 10.0989 14.9067C9.94825 14.74 9.86945 14.5216 9.87939 14.298C9.89213 14.074 9.99417 13.8642 10.1631 13.7146C10.332 13.565 10.554 13.488 10.7803 13.5004C10.8924 13.5065 11.0022 13.5345 11.1034 13.5827C11.2045 13.6309 11.2951 13.6984 11.3699 13.7813C11.4447 13.8642 11.5022 13.961 11.5391 14.0659C11.5761 14.1709 11.5918 14.2821 11.5852 14.3931C11.5702 14.6089 11.4732 14.8111 11.3137 14.9589C11.1543 15.1068 10.9441 15.1894 10.7257 15.1901L10.6857 15.19ZM24.8776 14.4194C24.8201 14.2026 24.8508 13.9721 24.9633 13.7775C25.0757 13.5829 25.2608 13.4398 25.4787 13.3789C25.6992 13.3258 25.932 13.3596 26.1279 13.4731C26.3238 13.5865 26.4676 13.7709 26.5289 13.9873C26.5574 14.0947 26.5641 14.2066 26.5485 14.3166C26.533 14.4266 26.4956 14.5325 26.4384 14.628C26.3813 14.7236 26.3055 14.807 26.2156 14.8733C26.1257 14.9397 26.0233 14.9877 25.9145 15.0146C25.8444 15.0371 25.7707 15.0461 25.6972 15.041C25.5104 15.0417 25.3286 14.9812 25.1803 14.8687C25.032 14.7562 24.9255 14.5982 24.8776 14.4194ZM22.708 14.7981H22.7213C22.5129 14.7103 22.3475 14.5449 22.2608 14.3377C22.1741 14.1304 22.1729 13.8978 22.2576 13.6897C22.3503 13.4837 22.5207 13.3218 22.7323 13.2385C22.9439 13.1551 23.1801 13.157 23.3904 13.2437C23.5956 13.335 23.7571 13.5014 23.8411 13.708C23.925 13.9147 23.9249 14.1455 23.8408 14.3521C23.7726 14.504 23.6617 14.6331 23.5213 14.7242C23.3809 14.8152 23.217 14.8643 23.0492 14.8654C22.9324 14.8622 22.8171 14.8394 22.708 14.7981ZM12.5821 14.0816C12.5305 13.9833 12.4991 13.8758 12.4897 13.7654C12.4803 13.655 12.493 13.5438 12.5272 13.4383C12.5614 13.3328 12.6164 13.2351 12.6889 13.1507C12.7615 13.0663 12.8502 12.997 12.9499 12.9468C13.1519 12.8499 13.3838 12.8337 13.5975 12.9017C13.8111 12.9696 13.9902 13.1164 14.0974 13.3116C14.1969 13.5111 14.214 13.7411 14.1451 13.9529C14.0762 14.1646 13.9267 14.3414 13.7282 14.4458C13.6069 14.511 13.4705 14.5438 13.3325 14.5408C13.1767 14.5407 13.024 14.4977 12.8915 14.4166C12.7589 14.3355 12.6518 14.2195 12.5821 14.0816ZM7.76439 14.0816C7.67117 14.0195 7.59123 13.9398 7.52912 13.8471C7.46702 13.7544 7.42396 13.6505 7.40243 13.5413C7.3809 13.4321 7.3813 13.3198 7.40362 13.2108C7.42594 13.1017 7.46973 12.9981 7.5325 12.9059C7.65837 12.7224 7.85218 12.5954 8.07195 12.5524C8.29172 12.5094 8.51974 12.5539 8.7066 12.6762C8.8002 12.7362 8.88087 12.8139 8.94394 12.905C9.00701 12.996 9.05122 13.0985 9.07403 13.2065C9.09683 13.3146 9.09777 13.426 9.0768 13.5344C9.05582 13.6429 9.01334 13.7461 8.95182 13.8381C8.87621 13.956 8.77133 14.0527 8.6472 14.119C8.52307 14.1853 8.38385 14.219 8.24282 14.2168C8.07355 14.2181 7.9075 14.1711 7.76439 14.0816ZM20.2785 13.3116C20.1848 13.2516 20.1042 13.1738 20.0411 13.0827C19.978 12.9917 19.9338 12.8891 19.911 12.781C19.8882 12.6729 19.8872 12.5614 19.9082 12.4529C19.9292 12.3445 19.9717 12.2412 20.0332 12.1491C20.1583 11.9611 20.3536 11.83 20.5762 11.7844C20.7989 11.7389 21.0307 11.7827 21.2207 11.9063C21.4052 12.0311 21.5339 12.2217 21.5796 12.4383C21.6253 12.6549 21.5846 12.8807 21.4659 13.0682C21.3851 13.1844 21.2771 13.2795 21.1511 13.3454C21.025 13.4112 20.8848 13.4458 20.7423 13.4462C20.5774 13.4493 20.4156 13.4023 20.2785 13.3116ZM14.9023 12.6901C14.7989 12.4926 14.7781 12.2628 14.8444 12.0504C14.9108 11.8379 15.0589 11.6598 15.2568 11.5546C15.3571 11.503 15.4667 11.4715 15.5793 11.462C15.6919 11.4524 15.8053 11.4649 15.913 11.4988C16.0207 11.5327 16.1206 11.5873 16.2069 11.6595C16.2933 11.7316 16.3644 11.82 16.4162 11.9194C16.5152 12.119 16.5321 12.3489 16.4635 12.5606C16.395 12.7723 16.2462 12.9495 16.0484 13.0549C15.9267 13.1191 15.7905 13.1516 15.6527 13.1492C15.4965 13.1512 15.3429 13.109 15.21 13.0277C15.0772 12.9464 14.9704 12.8293 14.9023 12.6901ZM5.60801 12.7441C5.39864 12.6573 5.23241 12.4921 5.14553 12.2845C5.05866 12.0769 5.05819 11.8436 5.14423 11.6357C5.23404 11.4304 5.40194 11.2685 5.61152 11.185C5.8211 11.1016 6.05547 11.1032 6.26381 11.1897C6.36786 11.232 6.4623 11.2945 6.54156 11.3736C6.62081 11.4526 6.68328 11.5465 6.72525 11.6499C6.76723 11.7532 6.78788 11.8638 6.78597 11.9751C6.78407 12.0865 6.75965 12.1964 6.71415 12.2982C6.6502 12.4504 6.54213 12.5803 6.4036 12.6717C6.26507 12.7631 6.1023 12.8117 5.93586 12.8115C5.82276 12.815 5.71037 12.7919 5.60801 12.7441ZM2.45616 12.0276C2.39865 11.811 2.42924 11.5806 2.54138 11.3861C2.65351 11.1915 2.83824 11.0483 3.05587 10.9871C3.27486 10.93 3.50773 10.9603 3.70439 11.0715C3.90104 11.1827 4.04575 11.3658 4.10738 11.5816C4.16492 11.7984 4.13417 12.0289 4.02175 12.2235C3.90934 12.4181 3.72425 12.5612 3.50633 12.6221C3.43014 12.6387 3.35246 12.6478 3.27444 12.6491C3.08836 12.6477 2.9078 12.5863 2.76014 12.4742C2.61248 12.362 2.50572 12.2052 2.45616 12.0276ZM18.2047 12.5007C18.0926 12.4946 17.9828 12.4667 17.8817 12.4186C17.7805 12.3704 17.6899 12.303 17.6151 12.2201C17.5404 12.1373 17.4828 12.0406 17.4459 11.9356C17.4089 11.8307 17.3932 11.7196 17.3997 11.6086C17.4125 11.3846 17.5145 11.1748 17.6835 11.0254C17.8524 10.8759 18.0744 10.799 18.3006 10.8116C18.5267 10.8245 18.7384 10.9257 18.8893 11.0929C19.0402 11.2601 19.118 11.4797 19.1056 11.7036C19.0902 11.9194 18.9931 12.1213 18.8337 12.2692C18.6743 12.417 18.4644 12.4997 18.246 12.5007H18.2047Z" fill="white"/>
<path d="M28.1534 13.852C28.0409 13.8491 27.9298 13.8261 27.8256 13.784C27.7196 13.7455 27.6255 13.6805 27.5524 13.5953C27.4726 13.5175 27.408 13.4258 27.3618 13.3248C27.317 13.2224 27.2938 13.1121 27.2938 13.0005C27.2938 12.8889 27.317 12.7786 27.3618 12.6762C27.4081 12.5754 27.4727 12.484 27.5524 12.4063C27.6254 12.3209 27.7195 12.2557 27.8256 12.217C28.0365 12.1358 28.2704 12.1358 28.4813 12.217C28.5821 12.2644 28.674 12.3284 28.7532 12.4063C28.8367 12.4809 28.9023 12.5732 28.9451 12.6762C28.9826 12.7803 29.0011 12.8903 28.9997 13.0008C29.0026 13.1114 28.9822 13.2214 28.9397 13.3238C28.8973 13.4262 28.8337 13.5186 28.7531 13.5953C28.6777 13.6773 28.5849 13.7418 28.4812 13.784C28.377 13.8261 28.266 13.8491 28.1534 13.852Z" fill="white"/>
<path d="M4.91239 15.2296C4.79975 15.2283 4.68842 15.2055 4.58455 15.1623C4.47988 15.1286 4.38609 15.068 4.31267 14.9868C4.15304 14.8287 4.06013 14.6164 4.0528 14.393C4.05345 14.2795 4.07675 14.1673 4.12135 14.0628C4.16595 13.9583 4.23097 13.8636 4.31267 13.784C4.39003 13.7075 4.48262 13.6477 4.58455 13.6085C4.71405 13.5529 4.85561 13.5305 4.99617 13.5434C5.13673 13.5562 5.27174 13.604 5.38875 13.6821C5.50576 13.7603 5.60099 13.8664 5.66564 13.9907C5.73029 14.1149 5.76228 14.2533 5.75866 14.393C5.75919 14.5031 5.7378 14.6122 5.69572 14.7141C5.65365 14.816 5.5917 14.9086 5.51344 14.9868C5.35156 15.1405 5.13663 15.2273 4.91239 15.2296Z" fill="white"/>
<path d="M11.3267 17.1086C11.268 16.8936 11.2965 16.6645 11.406 16.47C11.5156 16.2754 11.6975 16.131 11.9131 16.0675C12.0207 16.0365 12.1335 16.0271 12.2448 16.0396C12.3562 16.0522 12.4639 16.0866 12.5618 16.1407C12.6596 16.1948 12.7456 16.2677 12.8147 16.355C12.8839 16.4424 12.9348 16.5424 12.9646 16.6494C12.9966 16.7559 13.0068 16.8676 12.9944 16.9781C12.9821 17.0885 12.9475 17.1953 12.8927 17.2923C12.8379 17.3892 12.764 17.4743 12.6754 17.5425C12.5868 17.6107 12.4853 17.6606 12.3769 17.6892C12.302 17.7129 12.2234 17.7223 12.145 17.7169C11.9602 17.7182 11.78 17.6593 11.6322 17.5494C11.4844 17.4395 11.3771 17.2847 11.3267 17.1086ZM9.25167 17.5678C9.04226 17.4884 8.87313 17.3302 8.78123 17.1277C8.68933 16.9252 8.68214 16.6949 8.76124 16.4871C8.80042 16.3825 8.86032 16.2867 8.93741 16.2054C9.0145 16.1241 9.10723 16.0588 9.21015 16.0134C9.31307 15.9681 9.42411 15.9435 9.53675 15.9413C9.64939 15.939 9.76134 15.959 9.86605 16.0002C10.0775 16.0814 10.2479 16.2422 10.34 16.4474C10.4322 16.6526 10.4386 16.8856 10.3578 17.0954C10.2924 17.254 10.181 17.3898 10.0378 17.4859C9.89456 17.5819 9.72584 17.6338 9.55287 17.6351C9.449 17.6324 9.34667 17.6095 9.25167 17.5678ZM21.2074 16.6494C21.0214 16.5218 20.894 16.3265 20.8531 16.1062C20.8121 15.8859 20.8609 15.6585 20.9888 15.4737C21.0511 15.3808 21.1317 15.3013 21.2258 15.2398C21.3198 15.1784 21.4254 15.1364 21.5362 15.1162C21.647 15.096 21.7607 15.0981 21.8707 15.1223C21.9807 15.1466 22.0846 15.1925 22.1762 15.2573V15.2441C22.3618 15.372 22.4889 15.5673 22.5298 15.7875C22.5707 16.0077 22.5222 16.2349 22.3948 16.4199C22.3166 16.5355 22.211 16.6304 22.0871 16.6962C21.9633 16.762 21.825 16.7967 21.6845 16.7973C21.5145 16.7938 21.349 16.7424 21.2074 16.6494ZM13.7962 16.1889C13.7309 16.0982 13.6846 15.9954 13.6602 15.8866C13.6358 15.7779 13.6338 15.6654 13.6542 15.5558C13.6745 15.4462 13.717 15.3419 13.7789 15.2489C13.8409 15.1559 13.9211 15.0761 14.0148 15.0145C14.1065 14.9501 14.2104 14.9046 14.3202 14.8805C14.43 14.8565 14.5436 14.8544 14.6542 14.8744C14.7649 14.8945 14.8703 14.9362 14.9644 14.9972C15.0585 15.0582 15.1394 15.1372 15.2022 15.2295C15.327 15.4153 15.374 15.6418 15.3332 15.8612C15.2924 16.0806 15.1671 16.2757 14.9836 16.4053C14.8374 16.4993 14.6675 16.551 14.4932 16.5544C14.3559 16.5534 14.2209 16.5197 14.0996 16.4561C13.9782 16.3925 13.8742 16.3008 13.7962 16.1889ZM6.82349 16.1348V16.1493C6.636 16.0233 6.50642 15.829 6.46299 15.6088C6.41955 15.3886 6.46578 15.1603 6.5916 14.9737C6.65408 14.8813 6.73437 14.802 6.82787 14.7404C6.92137 14.6788 7.02624 14.6361 7.13645 14.6148C7.24666 14.5934 7.36005 14.5939 7.47009 14.616C7.58014 14.6382 7.68468 14.6817 7.77771 14.7439C7.87101 14.806 7.95106 14.8856 8.01328 14.9782C8.0755 15.0709 8.11867 15.1748 8.14033 15.284C8.16199 15.3932 8.16171 15.5055 8.13951 15.6146C8.1173 15.7237 8.07361 15.8273 8.01093 15.9197C7.93206 16.0337 7.82593 16.1266 7.70199 16.1902C7.57805 16.2537 7.44015 16.2859 7.3006 16.2839C7.12943 16.2868 6.96195 16.2345 6.82349 16.1348ZM19.119 15.4064V15.3919C18.9092 15.313 18.7396 15.1549 18.6474 14.9522C18.5552 14.7496 18.548 14.5191 18.6273 14.3112C18.7092 14.1018 18.8716 13.933 19.0789 13.8419C19.2862 13.7508 19.5216 13.7447 19.7334 13.8249C19.9429 13.9044 20.1122 14.0627 20.2041 14.2654C20.296 14.468 20.3031 14.6985 20.2239 14.9063C20.1646 15.0674 20.0571 15.2068 19.9155 15.3056C19.774 15.4044 19.6054 15.458 19.4322 15.4592C19.326 15.4544 19.2208 15.4367 19.119 15.4064ZM16.0205 14.7704C15.9878 14.663 15.977 14.5502 15.989 14.4387C16.0009 14.3272 16.0353 14.2191 16.0901 14.1209C16.1448 14.0228 16.2189 13.9364 16.3079 13.867C16.3968 13.7976 16.4989 13.7465 16.6081 13.7167C16.8252 13.6586 17.0566 13.6869 17.2528 13.7955C17.4491 13.9041 17.5946 14.0845 17.6583 14.298C17.6911 14.4035 17.7023 14.5145 17.6911 14.6243C17.68 14.7342 17.6467 14.8407 17.5933 14.9376C17.5399 15.0345 17.4674 15.1198 17.3802 15.1886C17.2929 15.2573 17.1926 15.3081 17.0853 15.3378H17.072C16.9972 15.3614 16.9185 15.3708 16.8401 15.3655C16.6569 15.3674 16.478 15.3104 16.3302 15.2031C16.1824 15.0958 16.0738 14.944 16.0205 14.7704Z" fill="white"/>
<path d="M24.1007 17.8648C23.9881 17.8622 23.8771 17.8394 23.7728 17.7975C23.6712 17.7568 23.5785 17.6972 23.4995 17.622C23.4212 17.5436 23.3591 17.4507 23.3171 17.3486C23.275 17.2465 23.2537 17.1372 23.2543 17.0269C23.2512 16.9119 23.2697 16.7973 23.3089 16.6891C23.3549 16.5883 23.4195 16.497 23.4995 16.4199C23.578 16.3438 23.6708 16.2837 23.7727 16.243C23.9278 16.1794 24.0984 16.1622 24.2633 16.1937C24.4282 16.2251 24.5801 16.3037 24.7003 16.4199C24.7807 16.4967 24.8454 16.588 24.8909 16.6891C24.9349 16.7964 24.9584 16.911 24.9601 17.0269C24.9584 17.1342 24.9348 17.2401 24.8909 17.3383C24.849 17.4455 24.784 17.5424 24.7003 17.6221C24.5404 17.7778 24.325 17.865 24.1007 17.8648Z" fill="white"/>
<path d="M0.85963 19.257C0.632903 19.2528 0.416967 19.1603 0.258579 18.9996C0.176132 18.9246 0.11111 18.8328 0.0680006 18.7304C0.0257212 18.6272 0.0026952 18.5172 3.92255e-05 18.4058C-0.000717374 18.2943 0.0218651 18.1839 0.0663627 18.0815C0.11086 17.979 0.176308 17.8868 0.258579 17.8107C0.418687 17.6547 0.634322 17.5672 0.858961 17.5672C1.0836 17.5672 1.29923 17.6547 1.45934 17.8107C1.5418 17.8868 1.60746 17.9789 1.65218 18.0813C1.69691 18.1838 1.71973 18.2942 1.71922 18.4058C1.71591 18.5171 1.69291 18.627 1.65126 18.7304C1.60814 18.8331 1.54261 18.925 1.45936 18.9996C1.30148 19.1603 1.08597 19.2527 0.85963 19.257Z" fill="white"/>
<path d="M10.6857 20.595C10.4594 20.5824 10.2473 20.4814 10.0962 20.3142C9.94498 20.147 9.86702 19.9271 9.87938 19.703C9.88559 19.5921 9.91383 19.4835 9.96248 19.3833C10.0111 19.2832 10.0792 19.1936 10.1629 19.1196C10.2466 19.0455 10.3442 18.9886 10.4501 18.9519C10.5561 18.9153 10.6683 18.8997 10.7803 18.906C10.8924 18.912 11.0022 18.9398 11.1034 18.9879C11.2047 19.036 11.2953 19.1034 11.3701 19.1863C11.4449 19.2692 11.5024 19.3659 11.5393 19.4709C11.5763 19.5759 11.5919 19.6871 11.5852 19.7981C11.5733 20.0124 11.4793 20.2142 11.3223 20.3623C11.1653 20.5104 10.9571 20.5937 10.7403 20.5951L10.6857 20.595ZM24.8776 19.8244C24.8184 19.6076 24.8484 19.3764 24.9611 19.1815C25.0737 18.9866 25.2599 18.8438 25.4786 18.7846C25.699 18.7312 25.9317 18.7646 26.1276 18.8779C26.3236 18.9911 26.4674 19.1753 26.5288 19.3916C26.5833 19.6085 26.5494 19.8379 26.4344 20.0302C26.3195 20.2226 26.1327 20.3624 25.9144 20.4195C25.8488 20.4412 25.7796 20.4502 25.7105 20.4459C25.5216 20.4489 25.3371 20.3894 25.1862 20.2768C25.0353 20.1642 24.9267 20.005 24.8776 19.8244ZM22.7213 20.2031C22.6178 20.1602 22.5238 20.0974 22.445 20.0182C22.3662 19.9391 22.304 19.8452 22.2621 19.7421C22.2202 19.639 22.1994 19.5287 22.2009 19.4175C22.2024 19.3064 22.2262 19.1966 22.2709 19.0947C22.3135 18.9916 22.3766 18.8981 22.4565 18.8196C22.5363 18.7411 22.6311 18.6792 22.7355 18.6376C22.8399 18.5961 22.9516 18.5756 23.064 18.5775C23.1765 18.5794 23.2875 18.6036 23.3903 18.6486C23.5956 18.7399 23.7571 18.9063 23.8411 19.113C23.9251 19.3197 23.925 19.5505 23.8408 19.7571C23.7726 19.9089 23.6617 20.0381 23.5213 20.1292C23.3809 20.2202 23.217 20.2692 23.0492 20.2704C22.9367 20.2671 22.8258 20.2443 22.7213 20.2031ZM12.5821 19.4866C12.53 19.3883 12.4983 19.2808 12.4886 19.1703C12.479 19.0598 12.4916 18.9485 12.5258 18.8429C12.5601 18.7372 12.6152 18.6394 12.688 18.5551C12.7608 18.4708 12.8499 18.4017 12.9499 18.3518C13.1513 18.2517 13.3842 18.2337 13.5988 18.3018C13.8134 18.3699 13.9924 18.5186 14.0974 18.716C14.199 18.9175 14.2173 19.1502 14.1484 19.3648C14.0794 19.5795 13.9287 19.759 13.7282 19.8653C13.6034 19.9193 13.4686 19.9467 13.3325 19.9458C13.1767 19.9458 13.024 19.9028 12.8915 19.8216C12.7589 19.7405 12.6518 19.6245 12.5821 19.4866ZM7.76438 19.4866C7.67117 19.4245 7.59124 19.3448 7.52914 19.2521C7.46704 19.1594 7.424 19.0554 7.40247 18.9463C7.38093 18.8371 7.38133 18.7248 7.40364 18.6157C7.42595 18.5067 7.46973 18.4031 7.53249 18.3108C7.65854 18.1276 7.85234 18.0008 8.07203 17.9578C8.29171 17.9149 8.51965 17.9592 8.7066 18.0812C8.80021 18.1413 8.88088 18.2191 8.94395 18.3101C9.00702 18.4012 9.05123 18.5038 9.07403 18.6119C9.09683 18.72 9.09777 18.8315 9.07679 18.9399C9.05582 19.0484 9.01334 19.1517 8.95182 19.2438C8.8738 19.3593 8.76837 19.4541 8.64477 19.5199C8.52116 19.5857 8.38315 19.6204 8.24282 19.6212C8.07356 19.623 7.9074 19.5762 7.76438 19.4866ZM20.2785 18.716C20.1849 18.6561 20.1042 18.5784 20.0411 18.4874C19.9781 18.3965 19.9339 18.294 19.911 18.186C19.8882 18.078 19.8873 17.9666 19.9083 17.8583C19.9292 17.7499 19.9717 17.6467 20.0332 17.5547C20.1583 17.3667 20.3534 17.2355 20.576 17.1897C20.7986 17.1439 21.0304 17.1874 21.2207 17.3106C21.4068 17.4346 21.5357 17.6266 21.5792 17.8445C21.6226 18.0624 21.5771 18.2884 21.4526 18.4732C21.3768 18.5912 21.2717 18.6881 21.1474 18.7544C21.023 18.8207 20.8835 18.8543 20.7422 18.8519C20.5772 18.8547 20.4153 18.8073 20.2785 18.716ZM14.889 18.0944C14.788 17.8952 14.7699 17.6648 14.8387 17.4525C14.9075 17.2403 15.0576 17.0633 15.2568 16.9595C15.3561 16.908 15.4648 16.8765 15.5765 16.867C15.6882 16.8575 15.8007 16.8701 15.9074 16.9041C16.0141 16.9382 16.1129 16.9929 16.198 17.0652C16.2831 17.1375 16.3528 17.2258 16.403 17.3251C16.5073 17.5222 16.5286 17.7523 16.4621 17.9649C16.3957 18.1775 16.247 18.3555 16.0484 18.4599C15.9267 18.5239 15.7905 18.5562 15.6527 18.5536C15.495 18.5543 15.3402 18.5118 15.2054 18.4308C15.0706 18.3497 14.9611 18.2333 14.889 18.0944ZM5.60806 18.1484C5.3988 18.0619 5.23259 17.8969 5.14571 17.6895C5.05883 17.4821 5.05831 17.2491 5.14428 17.0413C5.23397 16.836 5.40185 16.674 5.61146 16.5905C5.82108 16.507 6.0555 16.5087 6.2638 16.5954C6.36781 16.6375 6.46222 16.6999 6.54146 16.7788C6.62071 16.8577 6.68317 16.9515 6.72516 17.0548C6.76716 17.158 6.78783 17.2685 6.78596 17.3797C6.78409 17.491 6.75971 17.6007 6.71426 17.7025C6.65042 17.8547 6.54238 17.9848 6.40382 18.0762C6.26527 18.1676 6.10244 18.2162 5.93597 18.2158C5.82345 18.2132 5.71235 18.1903 5.60806 18.1484ZM2.45621 17.4332C2.39685 17.2164 2.42662 16.9852 2.539 16.7901C2.65139 16.5949 2.83725 16.4518 3.05592 16.3921C3.27499 16.3351 3.5079 16.3655 3.70454 16.4768C3.90119 16.5881 4.04585 16.7714 4.10743 16.9872C4.16497 17.2039 4.13421 17.4344 4.02178 17.6289C3.90936 17.8234 3.72426 17.9664 3.50638 18.027C3.43016 18.0436 3.35251 18.0529 3.27449 18.0547C3.08846 18.0531 2.90801 17.9916 2.76039 17.8795C2.61277 17.7674 2.50601 17.6107 2.45621 17.4332ZM18.2047 17.9056C18.0927 17.8995 17.983 17.8715 17.8819 17.8233C17.7807 17.7752 17.6902 17.7077 17.6154 17.6249C17.5407 17.542 17.4831 17.4454 17.4461 17.3405C17.4091 17.2356 17.3934 17.1245 17.3998 17.0136C17.4049 16.9023 17.4323 16.7931 17.4806 16.6924C17.5289 16.5918 17.597 16.5017 17.6809 16.4274C17.7648 16.3532 17.8629 16.2963 17.9693 16.2601C18.0757 16.2239 18.1884 16.2091 18.3007 16.2166C18.5269 16.2293 18.7387 16.3304 18.8896 16.4976C19.0406 16.6649 19.1183 16.8846 19.1056 17.1086C19.0904 17.3244 18.9933 17.5264 18.8339 17.6742C18.6745 17.8221 18.4645 17.9047 18.246 17.9056H18.2047Z" fill="white"/>
<path d="M28.1534 19.2438C28.0418 19.2454 27.9309 19.2246 27.8276 19.1827C27.7243 19.1407 27.6307 19.0784 27.5524 18.9996C27.4712 18.923 27.4064 18.8308 27.362 18.7288C27.3176 18.6268 27.2944 18.5169 27.2938 18.4058C27.2965 18.2944 27.3195 18.1845 27.3618 18.0812C27.4564 17.8785 27.6208 17.7157 27.8256 17.622C28.0363 17.5402 28.2705 17.5402 28.4813 17.622C28.5846 17.6647 28.6774 17.7291 28.7531 17.8107C28.8396 17.883 28.9057 17.9762 28.945 18.0812C29.0179 18.2916 29.0179 18.5201 28.945 18.7305C28.8986 18.8312 28.8335 18.9225 28.7531 18.9997C28.6751 19.0784 28.5817 19.1407 28.4786 19.1826C28.3755 19.2246 28.2649 19.2454 28.1534 19.2438Z" fill="white"/>
<path d="M0.859642 3.04201C0.689594 3.04399 0.522858 2.9954 0.381007 2.90252C0.239156 2.80965 0.128716 2.67676 0.0639764 2.52105C-0.000763378 2.36535 -0.0168242 2.19399 0.0178718 2.02914C0.0525679 1.8643 0.136424 1.71356 0.258592 1.59642C0.334208 1.51386 0.427572 1.44915 0.531802 1.40706C0.742683 1.32591 0.976615 1.32591 1.1875 1.40706C1.28926 1.45283 1.38147 1.51705 1.45937 1.59642C1.54141 1.67267 1.60679 1.76476 1.65149 1.86701C1.69619 1.96925 1.71925 2.07948 1.71925 2.19089C1.71925 2.3023 1.69619 2.41253 1.65149 2.51477C1.60679 2.61702 1.54141 2.70911 1.45937 2.78536C1.38204 2.86595 1.28905 2.93024 1.18598 2.97434C1.08292 3.01845 0.971917 3.04147 0.859642 3.04201Z" fill="white"/>
<path d="M10.6857 4.3794C10.4594 4.36707 10.2473 4.26624 10.0961 4.09908C9.9449 3.93193 9.86695 3.71214 9.87939 3.48808C9.89213 3.26405 9.99418 3.05419 10.1631 2.90462C10.332 2.75504 10.554 2.67799 10.7803 2.6904C10.8924 2.6965 11.0021 2.72442 11.1033 2.77258C11.2044 2.82074 11.2949 2.88818 11.3697 2.97104C11.4445 3.05391 11.502 3.15056 11.539 3.25548C11.576 3.36039 11.5917 3.4715 11.5853 3.58244C11.5705 3.79834 11.4735 4.00065 11.314 4.14857C11.1545 4.29648 10.9442 4.37899 10.7257 4.37946L10.6857 4.3794ZM24.8776 3.60942C24.8484 3.50293 24.8407 3.39174 24.8551 3.2823C24.8695 3.17286 24.9058 3.06733 24.9617 2.97184C25.0176 2.87635 25.092 2.79279 25.1808 2.726C25.2695 2.65921 25.3708 2.61052 25.4786 2.58275C25.6975 2.52385 25.931 2.55338 26.1279 2.66484C26.3249 2.7763 26.469 2.96058 26.5288 3.17721C26.5574 3.28459 26.5642 3.39652 26.5487 3.50651C26.5333 3.6165 26.4959 3.72235 26.4387 3.81789C26.3815 3.91342 26.3057 3.99675 26.2157 4.06301C26.1257 4.12927 26.0233 4.17715 25.9144 4.20385C25.8451 4.23043 25.7716 4.2443 25.6973 4.24478C25.5087 4.24445 25.3256 4.18175 25.1771 4.06664C25.0286 3.95153 24.9232 3.79061 24.8776 3.60942ZM22.708 3.98749C22.5028 3.89634 22.3413 3.73003 22.2573 3.52348C22.1733 3.31693 22.1734 3.0862 22.2575 2.87971C22.3012 2.77746 22.3649 2.68477 22.4449 2.60696C22.5249 2.52915 22.6196 2.46776 22.7237 2.42631C22.8277 2.38486 22.939 2.36418 23.0511 2.36544C23.1632 2.36671 23.274 2.38991 23.377 2.43369H23.3904C23.5962 2.52389 23.7577 2.69106 23.8396 2.89871C23.9215 3.10636 23.9172 3.33766 23.8275 3.54213C23.7635 3.69428 23.6554 3.82425 23.5169 3.91562C23.3784 4.00698 23.2156 4.05564 23.0492 4.05544C22.9325 4.05136 22.8172 4.02841 22.708 3.98749ZM12.5688 3.28548C12.469 3.08253 12.4529 2.84905 12.5241 2.63459C12.5952 2.42013 12.748 2.24156 12.9499 2.13678C13.1519 2.03988 13.3838 2.02373 13.5975 2.09166C13.8111 2.1596 13.9902 2.30642 14.0974 2.50162C14.1959 2.70341 14.2125 2.9349 14.1438 3.14845C14.0751 3.36201 13.9264 3.54137 13.7282 3.64965C13.6044 3.70818 13.4696 3.74054 13.3325 3.74466C13.1759 3.74037 13.0231 3.69578 12.8892 3.61526C12.7553 3.53475 12.6449 3.42109 12.5688 3.28548ZM7.76439 3.27161C7.57983 3.14654 7.45217 2.9548 7.40881 2.73756C7.36545 2.52032 7.40986 2.29491 7.5325 2.10973C7.59292 2.01682 7.67139 1.93672 7.76334 1.87409C7.85529 1.81145 7.95889 1.76754 8.06813 1.74488C8.17737 1.72223 8.29007 1.7213 8.39967 1.74214C8.50928 1.76298 8.61361 1.80517 8.70661 1.86628C8.80021 1.92623 8.88088 2.00397 8.94395 2.09499C9.00702 2.18601 9.05123 2.28851 9.07404 2.39656C9.09684 2.50461 9.09778 2.61606 9.07681 2.72448C9.05583 2.83289 9.01335 2.93611 8.95183 3.02816C8.87687 3.14761 8.77248 3.24624 8.64846 3.31479C8.52444 3.38333 8.38486 3.41954 8.24283 3.42002C8.07237 3.41641 7.90646 3.36495 7.76439 3.27161ZM20.2785 2.50167C20.1849 2.44165 20.1042 2.36386 20.0411 2.27278C19.978 2.1817 19.9338 2.07914 19.911 1.97104C19.8882 1.86294 19.8873 1.75143 19.9082 1.64297C19.9292 1.5345 19.9717 1.43123 20.0333 1.33913C20.1583 1.15114 20.3536 1.01999 20.5762 0.974461C20.7989 0.928936 21.0307 0.972765 21.2207 1.09632C21.4058 1.22099 21.5338 1.41277 21.5772 1.63019C21.6206 1.84761 21.5758 2.07321 21.4526 2.2582C21.3767 2.37607 21.2715 2.4727 21.1472 2.53888C21.0228 2.60507 20.8834 2.6386 20.7423 2.63627C20.5777 2.63745 20.4164 2.59063 20.2785 2.50167ZM14.889 1.89334C14.8369 1.79402 14.8051 1.6855 14.7954 1.57399C14.7857 1.46249 14.7982 1.35017 14.8324 1.24348C14.8666 1.1368 14.9216 1.03782 14.9945 0.952227C15.0673 0.866632 15.1565 0.796093 15.2568 0.744648C15.3561 0.693159 15.4647 0.661747 15.5764 0.652243C15.688 0.642738 15.8004 0.655332 15.9071 0.689289C16.0138 0.723247 16.1126 0.777889 16.1977 0.85003C16.2828 0.922172 16.3526 1.01037 16.403 1.10948C16.5073 1.30674 16.5286 1.53687 16.4622 1.74962C16.3958 1.96238 16.247 2.14046 16.0485 2.24498C15.9262 2.30778 15.7904 2.34016 15.6527 2.33932C15.4967 2.33966 15.3435 2.29843 15.2091 2.21996C15.0748 2.14149 14.9642 2.02868 14.889 1.89334ZM5.60807 1.93424C5.3987 1.84745 5.23247 1.68224 5.1456 1.47461C5.05872 1.26698 5.05825 1.03377 5.14429 0.825804C5.23643 0.622545 5.40452 0.462537 5.61326 0.37937C5.82201 0.296203 6.05517 0.296347 6.26381 0.379771C6.36748 0.422543 6.46152 0.485315 6.54044 0.564431C6.61936 0.643547 6.6816 0.737423 6.72351 0.840591C6.76543 0.943758 6.78619 1.05415 6.78458 1.16534C6.78298 1.27654 6.75904 1.3863 6.71416 1.48824C6.65021 1.64039 6.54214 1.77036 6.40361 1.86172C6.26508 1.95309 6.10231 2.00175 5.93587 2.00155C5.82276 2.00505 5.71043 1.982 5.60807 1.93424ZM2.45622 1.21771C2.39871 1.00107 2.42931 0.770731 2.54144 0.576185C2.65358 0.381639 2.8383 0.238403 3.05594 0.177246C3.27492 0.120127 3.50779 0.150416 3.70445 0.261594C3.9011 0.372773 4.04582 0.555953 4.10744 0.771713C4.16498 0.988534 4.13423 1.21905 4.02182 1.41365C3.9094 1.60825 3.72431 1.75136 3.50639 1.81217C3.4302 1.82885 3.35252 1.8379 3.2745 1.8392C3.0884 1.83784 2.90782 1.77642 2.76015 1.66427C2.61248 1.55211 2.50577 1.39533 2.45622 1.21771ZM18.2047 1.69078C18.0923 1.68576 17.982 1.65855 17.8804 1.61075C17.7787 1.56295 17.6877 1.49553 17.6127 1.41243C17.5377 1.32934 17.4803 1.23225 17.4437 1.12686C17.4072 1.02147 17.3922 0.909917 17.3998 0.798738C17.4033 0.688195 17.4292 0.57948 17.4761 0.479064C17.5229 0.378647 17.5896 0.28858 17.6723 0.21422C17.755 0.139861 17.8519 0.0827281 17.9573 0.0462218C18.0628 0.00971549 18.1746 -0.00541879 18.286 0.00171963H18.3007C18.5268 0.0146398 18.7385 0.115795 18.8894 0.28301C19.0403 0.450225 19.118 0.669857 19.1056 0.893758C19.0903 1.10946 18.9932 1.31146 18.8338 1.45926C18.6744 1.60707 18.4644 1.68976 18.246 1.69078H18.2047Z" fill="white"/>
<path d="M28.1534 3.04201C28.0409 3.03915 27.9298 3.01612 27.8256 2.97406C27.7196 2.93558 27.6255 2.87057 27.5524 2.78536C27.4726 2.70751 27.408 2.61581 27.3618 2.51484C27.317 2.41248 27.2938 2.3021 27.2938 2.19054C27.2938 2.07897 27.317 1.96859 27.3618 1.86624C27.4081 1.76547 27.4727 1.67399 27.5524 1.59638C27.6283 1.5141 27.7215 1.44944 27.8256 1.40702C28.0365 1.32586 28.2704 1.32586 28.4813 1.40702C28.5849 1.44947 28.6778 1.51414 28.7532 1.59638C28.8339 1.67297 28.8975 1.76543 28.9399 1.86781C28.9824 1.9702 29.0028 2.08025 28.9997 2.19089C29.001 2.30123 28.9826 2.41092 28.9451 2.51485C28.9022 2.618 28.8366 2.7104 28.7532 2.78537C28.6742 2.8633 28.5823 2.92714 28.4813 2.97407C28.3771 3.01614 28.266 3.03916 28.1534 3.04201Z" fill="white"/>
<path d="M4.9124 4.42031C4.7992 4.42391 4.68679 4.40061 4.58456 4.35235C4.47989 4.3186 4.3861 4.25806 4.31268 4.17685C4.23054 4.09922 4.16515 4.0059 4.12048 3.90253C4.07581 3.79916 4.05277 3.68789 4.05277 3.57545C4.05277 3.46302 4.07581 3.35175 4.12048 3.24838C4.16515 3.14501 4.23054 3.05169 4.31268 2.97405C4.39004 2.89753 4.48263 2.83776 4.58456 2.79855C4.7399 2.73548 4.91042 2.71848 5.07534 2.74964C5.24026 2.7808 5.39248 2.85877 5.51345 2.97405C5.59307 3.05425 5.65576 3.14935 5.69786 3.2538C5.73996 3.35824 5.76063 3.46994 5.75867 3.58238C5.75933 3.69258 5.738 3.80182 5.69592 3.90383C5.65384 4.00584 5.59183 4.09863 5.51345 4.17685C5.35008 4.32832 5.13614 4.41498 4.9124 4.42031Z" fill="white"/>
<path d="M11.3267 6.29867C11.2679 6.08377 11.2963 5.8546 11.4058 5.66017C11.5154 5.46574 11.6975 5.32147 11.9131 5.25821C12.1303 5.19817 12.3626 5.2255 12.5595 5.33424C12.7565 5.44298 12.9021 5.62433 12.9646 5.83883C12.9974 5.94534 13.0082 6.05732 12.9962 6.16804C12.9842 6.27877 12.9497 6.38595 12.8948 6.48314C12.8399 6.58033 12.7657 6.66552 12.6767 6.7336C12.5877 6.80168 12.4857 6.85124 12.3769 6.87929C12.3029 6.90718 12.2242 6.92105 12.145 6.92019C11.9589 6.9187 11.7784 6.85724 11.6307 6.7451C11.4831 6.63295 11.3764 6.47624 11.3267 6.29867ZM9.25168 6.75788C9.04216 6.67845 8.87293 6.5201 8.78101 6.31746C8.6891 6.11481 8.68197 5.88437 8.76119 5.67654C8.80047 5.57203 8.86042 5.47634 8.93755 5.39509C9.01467 5.31383 9.10741 5.24864 9.21032 5.20335C9.31323 5.15805 9.42424 5.13357 9.53683 5.13132C9.64943 5.12908 9.76134 5.14913 9.86601 5.19029C10.0774 5.27136 10.2478 5.43201 10.34 5.63712C10.4321 5.84222 10.4385 6.07511 10.3578 6.28487C10.2939 6.44192 10.1848 6.57689 10.0441 6.67297C9.90329 6.76906 9.73709 6.82201 9.56614 6.82524C9.45786 6.82361 9.35098 6.80068 9.25168 6.75788ZM21.2074 5.83879C21.115 5.77582 21.0361 5.69546 20.9752 5.60229C20.9142 5.50912 20.8724 5.40497 20.8521 5.29579C20.8318 5.1866 20.8334 5.07453 20.8569 4.96598C20.8803 4.85742 20.9252 4.7545 20.9888 4.66311C21.0523 4.57152 21.1334 4.49326 21.2275 4.43281C21.3217 4.37236 21.4269 4.33092 21.5372 4.31088C21.6476 4.29083 21.7608 4.29256 21.8705 4.31599C21.9802 4.33941 22.0841 4.38405 22.1763 4.44736C22.2682 4.50902 22.3468 4.58813 22.4076 4.68009C22.4684 4.77206 22.5102 4.87505 22.5305 4.98312C22.5508 5.09118 22.5493 5.20216 22.526 5.30964C22.5027 5.41711 22.4581 5.51895 22.3948 5.60924C22.3168 5.72515 22.2112 5.8203 22.0874 5.88634C21.9635 5.95238 21.8252 5.98727 21.6845 5.98795C21.5143 5.98459 21.3487 5.93276 21.2074 5.83879ZM13.7962 5.37958C13.7315 5.28856 13.6857 5.18565 13.6616 5.0769C13.6376 4.96815 13.6356 4.85573 13.656 4.74624C13.6764 4.63674 13.7186 4.53237 13.7802 4.43923C13.8418 4.3461 13.9215 4.26607 14.0148 4.20384C14.1067 4.13965 14.2106 4.09429 14.3204 4.07041C14.4303 4.04653 14.5439 4.04462 14.6545 4.06477C14.7651 4.08493 14.8705 4.12676 14.9646 4.1878C15.0586 4.24884 15.1394 4.32787 15.2022 4.42025C15.327 4.606 15.374 4.83251 15.3332 5.05191C15.2924 5.27131 15.1671 5.46642 14.9836 5.596C14.8381 5.69145 14.6678 5.74302 14.4932 5.74444C14.3555 5.74634 14.2194 5.71393 14.0977 5.65018C13.9759 5.58644 13.8722 5.49335 13.7962 5.37958ZM6.8235 5.33868C6.63861 5.21076 6.5111 5.01676 6.46784 4.79757C6.42459 4.57839 6.46896 4.35113 6.59161 4.1637C6.7182 3.97758 6.91424 3.84884 7.13665 3.80577C7.35905 3.7627 7.58963 3.80882 7.77772 3.93399C7.871 3.99595 7.95103 4.0755 8.01325 4.16811C8.07546 4.26071 8.11863 4.36454 8.14029 4.47367C8.16195 4.5828 8.16167 4.69509 8.13948 4.80412C8.11728 4.91315 8.07361 5.01677 8.01094 5.10907C7.93221 5.22327 7.82612 5.31637 7.70216 5.38004C7.5782 5.4437 7.44024 5.47596 7.30061 5.47391C7.13169 5.47565 6.96592 5.42862 6.8235 5.33868ZM19.1324 4.59576C18.9194 4.51607 18.7469 4.35636 18.6523 4.15138C18.5578 3.94639 18.5487 3.71271 18.6273 3.50117C18.7116 3.29365 18.8743 3.12681 19.0808 3.03603C19.2873 2.94526 19.5214 2.93768 19.7334 3.01491C19.9445 3.09636 20.1145 3.25713 20.2064 3.46217C20.2982 3.66721 20.3045 3.8999 20.2239 4.10951C20.1616 4.26763 20.0529 4.40364 19.9118 4.49996C19.7707 4.59629 19.6036 4.64851 19.4322 4.64987C19.3302 4.64608 19.2292 4.62783 19.1324 4.59576ZM16.0205 3.96104C15.9877 3.85363 15.977 3.7408 15.9889 3.62922C16.0009 3.51763 16.0352 3.40954 16.09 3.31129C16.1447 3.21305 16.2188 3.12665 16.3078 3.05718C16.3968 2.98771 16.4989 2.93656 16.6082 2.90676H16.5949C16.8137 2.84687 17.0475 2.87416 17.2463 2.9828C17.445 3.09144 17.593 3.27279 17.6584 3.48804C17.6913 3.59446 17.7022 3.70637 17.6903 3.81705C17.6784 3.92773 17.644 4.03489 17.5893 4.13208C17.5345 4.22927 17.4604 4.31449 17.3715 4.38262C17.2826 4.45074 17.1807 4.50036 17.072 4.5285C16.9979 4.55605 16.9193 4.56971 16.8401 4.56875C16.6558 4.56773 16.4767 4.50813 16.3291 4.39874C16.1816 4.28935 16.0734 4.13588 16.0205 3.96104Z" fill="white"/>
<path d="M24.1007 7.05484C23.9882 7.05189 23.8772 7.0291 23.7728 6.98753C23.6738 6.94216 23.5818 6.88307 23.4996 6.81203C23.4212 6.73377 23.3593 6.64098 23.3172 6.53898C23.2751 6.43698 23.2538 6.32777 23.2544 6.21759C23.2524 6.10515 23.2731 5.99345 23.3152 5.889C23.3573 5.78456 23.42 5.68946 23.4996 5.60926C23.5782 5.53361 23.671 5.47397 23.7728 5.43374C23.9278 5.37004 24.0982 5.35272 24.2631 5.38391C24.4279 5.4151 24.58 5.49344 24.7003 5.60924C24.782 5.68869 24.847 5.78334 24.8916 5.88773C24.9362 5.99213 24.9595 6.10422 24.9602 6.21757C24.9585 6.32472 24.9349 6.43042 24.8909 6.52835C24.8494 6.6322 24.7868 6.72652 24.707 6.8055C24.6273 6.88447 24.532 6.94644 24.4271 6.98756C24.3232 7.02897 24.2127 7.05175 24.1007 7.05484Z" fill="white"/>
<path d="M4.91239 20.6346C4.79975 20.6333 4.68842 20.6104 4.58455 20.5673C4.47988 20.5336 4.38609 20.473 4.31267 20.3918C4.23103 20.3123 4.16604 20.2177 4.12145 20.1133C4.07685 20.0089 4.05352 19.8968 4.0528 19.7835C4.05396 19.6766 4.07708 19.5711 4.12076 19.4733C4.16324 19.3661 4.22872 19.2693 4.31267 19.1896C4.38572 19.1079 4.47964 19.0473 4.58455 19.0141C4.73974 18.9501 4.91046 18.9327 5.07557 18.9639C5.24067 18.9951 5.39292 19.0735 5.51344 19.1896C5.59224 19.2732 5.65662 19.369 5.70402 19.4733C5.74331 19.5719 5.76189 19.6775 5.7586 19.7834C5.76057 19.8959 5.7399 20.0076 5.69779 20.112C5.65569 20.2164 5.593 20.3115 5.51338 20.3917C5.35014 20.5433 5.13611 20.6298 4.91239 20.6346Z" fill="white"/>
<path d="M11.3267 22.5136C11.2662 22.2986 11.2939 22.0686 11.4037 21.8736C11.5135 21.6787 11.6965 21.5345 11.9131 21.4725C12.0207 21.4415 12.1335 21.432 12.2448 21.4446C12.3562 21.4572 12.4639 21.4915 12.5618 21.5457C12.6596 21.5998 12.7456 21.6727 12.8147 21.76C12.8839 21.8473 12.9348 21.9474 12.9646 22.0544C12.9974 22.1609 13.0082 22.2728 12.9962 22.3835C12.9842 22.4942 12.9497 22.6013 12.8948 22.6984C12.8399 22.7956 12.7657 22.8807 12.6767 22.9487C12.5877 23.0168 12.4857 23.0662 12.3769 23.0942C12.302 23.1179 12.2234 23.1273 12.145 23.1219C11.9602 23.1231 11.78 23.0643 11.6322 22.9544C11.4844 22.8445 11.3771 22.6897 11.3267 22.5136ZM9.25167 22.9728C9.04226 22.8934 8.87313 22.7352 8.78123 22.5327C8.68933 22.3301 8.68214 22.0998 8.76124 21.8921C8.80042 21.7875 8.86032 21.6917 8.93741 21.6104C9.0145 21.529 9.10723 21.4638 9.21015 21.4184C9.31307 21.373 9.42411 21.3485 9.53675 21.3462C9.64939 21.344 9.76134 21.364 9.86605 21.4052C10.0758 21.4842 10.2453 21.6423 10.3375 21.8449C10.4297 22.0475 10.437 22.278 10.3578 22.4859C10.2956 22.6478 10.1855 22.7873 10.0419 22.8862C9.89824 22.9851 9.7278 23.0388 9.55287 23.0401C9.449 23.0374 9.34667 23.0145 9.25167 22.9728ZM21.2074 22.0544C21.115 21.9914 21.0361 21.911 20.9752 21.8179C20.9142 21.7247 20.8724 21.6206 20.8521 21.5114C20.8318 21.4022 20.8334 21.2901 20.8569 21.1816C20.8803 21.073 20.9252 20.9701 20.9888 20.8787C21.0511 20.7858 21.1317 20.7063 21.2258 20.6448C21.3198 20.5834 21.4254 20.5413 21.5362 20.5211C21.647 20.5009 21.7607 20.503 21.8707 20.5273C21.9807 20.5515 22.0846 20.5975 22.1762 20.6623V20.6491C22.3618 20.777 22.4889 20.9723 22.5298 21.1925C22.5707 21.4126 22.5222 21.6399 22.3948 21.8249C22.3166 21.9405 22.211 22.0354 22.0871 22.1012C21.9633 22.167 21.825 22.2017 21.6845 22.2023C21.5145 22.1987 21.349 22.1474 21.2074 22.0544ZM13.7962 21.5939C13.7309 21.5031 13.6846 21.4004 13.6602 21.2916C13.6358 21.1829 13.6338 21.0704 13.6542 20.9608C13.6745 20.8512 13.717 20.7468 13.7789 20.6538C13.8409 20.5608 13.9211 20.4811 14.0148 20.4194C14.1065 20.3551 14.2104 20.3095 14.3202 20.2855C14.43 20.2614 14.5436 20.2594 14.6542 20.2794C14.7649 20.2995 14.8703 20.3412 14.9644 20.4022C15.0585 20.4632 15.1394 20.5422 15.2022 20.6345C15.327 20.8203 15.374 21.0468 15.3332 21.2662C15.2924 21.4856 15.1671 21.6807 14.9836 21.8103C14.8374 21.9043 14.6675 21.9559 14.4932 21.9594C14.3559 21.9584 14.2209 21.9247 14.0996 21.8611C13.9782 21.7975 13.8742 21.7057 13.7962 21.5939ZM6.82349 21.5398V21.5543C6.636 21.4283 6.50642 21.234 6.46299 21.0138C6.41955 20.7936 6.46578 20.5653 6.5916 20.3786C6.65408 20.2862 6.73437 20.207 6.82787 20.1454C6.92137 20.0838 7.02624 20.0411 7.13645 20.0198C7.24666 19.9984 7.36005 19.9988 7.47009 20.021C7.58014 20.0432 7.68468 20.0867 7.77771 20.1489C7.87101 20.211 7.95106 20.2906 8.01328 20.3832C8.0755 20.4759 8.11867 20.5798 8.14033 20.689C8.16199 20.7981 8.16171 20.9105 8.13951 21.0196C8.1173 21.1286 8.07361 21.2323 8.01093 21.3247C7.93206 21.4387 7.82593 21.5316 7.70199 21.5952C7.57805 21.6587 7.44015 21.6909 7.3006 21.6889C7.12943 21.6918 6.96195 21.6395 6.82349 21.5398ZM19.119 20.7969H19.1324C19.0269 20.7596 18.9301 20.7018 18.8474 20.6271C18.7648 20.5523 18.698 20.462 18.651 20.3614C18.604 20.2608 18.5777 20.1519 18.5736 20.0411C18.5695 19.9304 18.5878 19.8199 18.6273 19.7162C18.709 19.5066 18.8714 19.3377 19.0787 19.2464C19.2861 19.1551 19.5215 19.149 19.7334 19.2292C19.9445 19.3108 20.1146 19.4717 20.2064 19.6769C20.2983 19.882 20.3045 20.1148 20.2239 20.3245C20.1617 20.4826 20.053 20.6186 19.9118 20.7148C19.7707 20.8111 19.6036 20.8631 19.4322 20.8642C19.3245 20.8614 19.2183 20.8385 19.119 20.7969ZM16.0205 20.1622C15.9886 20.0557 15.9786 19.944 15.991 19.8336C16.0034 19.7232 16.038 19.6164 16.0928 19.5195C16.1476 19.4226 16.2214 19.3375 16.3099 19.2693C16.3984 19.2011 16.4998 19.1511 16.6081 19.1223C16.7156 19.0905 16.8284 19.0803 16.9399 19.0924C17.0514 19.1045 17.1593 19.1386 17.2572 19.1928C17.3552 19.2469 17.4411 19.32 17.51 19.4076C17.5789 19.4952 17.6293 19.5957 17.6583 19.703C17.6904 19.8085 17.701 19.9193 17.6894 20.0289C17.6779 20.1385 17.6445 20.2447 17.5912 20.3414C17.5379 20.4382 17.4657 20.5235 17.3789 20.5924C17.292 20.6612 17.1922 20.7124 17.0853 20.7428H17.072C16.9972 20.7664 16.9185 20.7758 16.8401 20.7705C16.655 20.7722 16.4745 20.7136 16.3264 20.6036C16.1783 20.4937 16.0708 20.3386 16.0205 20.1622Z" fill="white"/>
<path d="M24.1007 23.2698C23.9881 23.2672 23.8771 23.2444 23.7728 23.2025C23.6151 23.1409 23.4806 23.0325 23.3877 22.8921C23.2949 22.7518 23.2483 22.5863 23.2543 22.4186C23.2523 22.308 23.2708 22.198 23.3089 22.094C23.3549 21.9933 23.4195 21.902 23.4995 21.8248C23.578 21.7488 23.6709 21.6887 23.7727 21.648C23.9278 21.5844 24.0984 21.5672 24.2633 21.5986C24.4282 21.6301 24.5801 21.7087 24.7003 21.8248C24.7807 21.9016 24.8454 21.993 24.8909 22.094C24.9336 22.1972 24.957 22.3072 24.9602 22.4186C24.9594 22.532 24.9361 22.6441 24.8915 22.7485C24.8469 22.8529 24.7819 22.9475 24.7003 23.027C24.5404 23.1828 24.325 23.27 24.1007 23.2698Z" fill="white"/>
<path d="M0.85963 24.6619C0.632903 24.6578 0.416967 24.5653 0.258579 24.4046C0.176132 24.3296 0.11111 24.2378 0.0680006 24.1354C0.0257212 24.0322 0.0026952 23.9222 3.92255e-05 23.8108C-0.000717374 23.6993 0.0218651 23.5889 0.0663627 23.4864C0.11086 23.384 0.176308 23.2918 0.258579 23.2157C0.334589 23.1337 0.427859 23.0693 0.53179 23.027C0.742545 22.9452 0.976728 22.9452 1.18748 23.027C1.28895 23.073 1.38109 23.1369 1.45936 23.2157C1.54181 23.2918 1.60747 23.3839 1.65219 23.4863C1.69691 23.5887 1.71973 23.6992 1.71922 23.8108C1.71591 23.9221 1.69291 24.032 1.65126 24.1354C1.60814 24.2381 1.54261 24.33 1.45936 24.4046C1.30148 24.5653 1.08597 24.6577 0.85963 24.6619Z" fill="white"/>
<path d="M10.6857 26V25.9855C10.5729 25.9816 10.4622 25.9552 10.36 25.9078C10.2578 25.8605 10.1663 25.7932 10.091 25.7101C10.0158 25.6269 9.9582 25.5295 9.92183 25.4238C9.88546 25.3181 9.87102 25.2062 9.87938 25.0948C9.89488 24.8729 9.99823 24.6661 10.1669 24.5193C10.3357 24.3725 10.5561 24.2976 10.7803 24.3109C10.8924 24.3169 11.0022 24.3447 11.1034 24.3928C11.2047 24.4409 11.2953 24.5084 11.3701 24.5913C11.4449 24.6742 11.5024 24.7709 11.5393 24.8759C11.5763 24.9808 11.5919 25.092 11.5852 25.203C11.5702 25.4188 11.4732 25.621 11.3137 25.7689C11.1543 25.9167 10.9441 25.9993 10.7257 26H10.6857ZM24.8776 25.2294C24.8184 25.0126 24.8484 24.7814 24.9611 24.5865C25.0737 24.3916 25.2599 24.2488 25.4786 24.1895C25.699 24.1362 25.9317 24.1696 26.1276 24.2829C26.3236 24.3961 26.4674 24.5803 26.5288 24.7965C26.5833 25.0134 26.5494 25.2429 26.4344 25.4352C26.3195 25.6276 26.1327 25.7674 25.9144 25.8245C25.8444 25.847 25.7706 25.856 25.6972 25.8509C25.5104 25.8517 25.3286 25.7911 25.1803 25.6786C25.032 25.5661 24.9255 25.4081 24.8776 25.2294ZM22.7213 25.6081C22.6178 25.5652 22.5238 25.5023 22.445 25.4232C22.3662 25.3441 22.304 25.2502 22.2621 25.1471C22.2202 25.044 22.1994 24.9336 22.2009 24.8225C22.2024 24.7114 22.2262 24.6016 22.2709 24.4996C22.3135 24.3966 22.3766 24.3031 22.4565 24.2246C22.5363 24.1461 22.6311 24.0842 22.7355 24.0426C22.8399 24.001 22.9516 23.9806 23.064 23.9825C23.1765 23.9844 23.2875 24.0086 23.3903 24.0536C23.5964 24.1439 23.7588 24.3103 23.8429 24.5173C23.927 24.7243 23.9263 24.9556 23.8408 25.1621C23.7726 25.3139 23.6617 25.4431 23.5213 25.5341C23.3809 25.6252 23.217 25.6742 23.0492 25.6754C22.9367 25.6721 22.8258 25.6493 22.7213 25.6081ZM12.5821 24.8916C12.5305 24.7932 12.4991 24.6858 12.4897 24.5754C12.4803 24.465 12.4931 24.3538 12.5273 24.2483C12.5615 24.1428 12.6164 24.0451 12.689 23.9607C12.7615 23.8763 12.8502 23.807 12.9499 23.7568C13.1518 23.6598 13.3837 23.6435 13.5973 23.7113C13.811 23.7791 13.9901 23.9258 14.0974 24.121C14.2001 24.32 14.2189 24.5512 14.1497 24.7639C14.0805 24.9767 13.9289 25.1536 13.7282 25.2558C13.6069 25.321 13.4705 25.3537 13.3325 25.3508C13.1767 25.3507 13.024 25.3077 12.8915 25.2266C12.7589 25.1455 12.6518 25.0295 12.5821 24.8916ZM7.76438 24.8916C7.67117 24.8294 7.59124 24.7498 7.52914 24.657C7.46704 24.5643 7.424 24.4604 7.40247 24.3512C7.38093 24.2421 7.38133 24.1298 7.40364 24.0207C7.42595 23.9117 7.46973 23.8081 7.53249 23.7158C7.65854 23.5326 7.85234 23.4058 8.07203 23.3628C8.29171 23.3198 8.51965 23.3642 8.7066 23.4862C8.80049 23.546 8.88142 23.6237 8.94469 23.7148C9.00796 23.8058 9.05229 23.9084 9.07512 24.0166C9.09794 24.1248 9.09879 24.2364 9.07762 24.345C9.05645 24.4535 9.01369 24.5568 8.95182 24.6488C8.87593 24.7663 8.77095 24.8627 8.64686 24.9287C8.52277 24.9948 8.38369 25.0283 8.24282 25.0262C8.07356 25.0279 7.9074 24.9812 7.76438 24.8916ZM20.2785 24.1209C20.1844 24.0597 20.1034 23.9807 20.0401 23.8885C19.9769 23.7962 19.9326 23.6926 19.9098 23.5834C19.8871 23.4742 19.8862 23.3616 19.9074 23.2521C19.9286 23.1426 19.9714 23.0383 20.0332 22.9452C20.1622 22.7616 20.3583 22.6349 20.58 22.5921C20.8016 22.5492 21.0314 22.5935 21.2207 22.7156C21.4068 22.8396 21.5357 23.0315 21.5792 23.2494C21.6226 23.4673 21.5771 23.6934 21.4526 23.8781C21.3768 23.9962 21.2717 24.093 21.1474 24.1593C21.023 24.2257 20.8835 24.2592 20.7422 24.2568C20.5772 24.2597 20.4153 24.2123 20.2785 24.1209ZM14.889 23.4994C14.788 23.3002 14.7699 23.0697 14.8387 22.8575C14.9075 22.6453 15.0576 22.4683 15.2568 22.3645C15.3561 22.3129 15.4648 22.2815 15.5765 22.272C15.6882 22.2624 15.8007 22.2751 15.9074 22.3091C16.0141 22.3431 16.1129 22.3979 16.198 22.4702C16.2831 22.5424 16.3528 22.6308 16.403 22.7301C16.5063 22.9274 16.5271 23.1571 16.4607 23.3694C16.3944 23.5818 16.2463 23.7598 16.0484 23.8649C15.9267 23.9289 15.7905 23.9612 15.6527 23.9586C15.495 23.9593 15.3402 23.9168 15.2054 23.8358C15.0706 23.7547 14.9611 23.6383 14.889 23.4994ZM5.60806 23.5534C5.3988 23.4669 5.23259 23.3019 5.14571 23.0945C5.05883 22.8871 5.05831 22.6541 5.14428 22.4463C5.23397 22.2409 5.40185 22.0789 5.61146 21.9954C5.82108 21.912 6.0555 21.9137 6.2638 22.0004C6.36781 22.0425 6.46222 22.1049 6.54146 22.1838C6.62071 22.2627 6.68317 22.3565 6.72516 22.4597C6.76716 22.563 6.78783 22.6735 6.78596 22.7847C6.78409 22.896 6.75971 23.0057 6.71426 23.1075C6.65042 23.2597 6.54238 23.3898 6.40382 23.4812C6.26527 23.5725 6.10244 23.6211 5.93597 23.6208C5.8228 23.6247 5.71035 23.6015 5.60806 23.5534ZM2.45621 22.8382C2.39685 22.6214 2.42662 22.3902 2.539 22.195C2.65139 21.9999 2.83725 21.8568 3.05592 21.797C3.27499 21.7401 3.5079 21.7705 3.70454 21.8818C3.90119 21.9931 4.04585 22.1764 4.10743 22.3922C4.16497 22.6089 4.13421 22.8394 4.02178 23.0339C3.90936 23.2284 3.72426 23.3713 3.50638 23.432C3.43016 23.4486 3.35251 23.4579 3.27449 23.4597C3.08846 23.4581 2.90801 23.3966 2.76039 23.2845C2.61277 23.1724 2.50601 23.0157 2.45621 22.8382ZM18.2047 23.3106C18.0927 23.3045 17.983 23.2765 17.8819 23.2283C17.7807 23.1801 17.6902 23.1127 17.6154 23.0299C17.5407 22.947 17.4831 22.8504 17.4461 22.7455C17.4091 22.6406 17.3934 22.5295 17.3998 22.4186C17.4049 22.3073 17.4323 22.1981 17.4806 22.0974C17.5289 21.9968 17.597 21.9067 17.6809 21.8324C17.7648 21.7582 17.8629 21.7013 17.9693 21.6651C18.0757 21.6289 18.1884 21.6141 18.3007 21.6215C18.5269 21.6343 18.7387 21.7353 18.8896 21.9026C19.0406 22.0699 19.1183 22.2896 19.1056 22.5136C19.0904 22.7293 18.9933 22.9314 18.8339 23.0792C18.6745 23.2271 18.4645 23.3097 18.246 23.3106H18.2047Z" fill="white"/>
<path d="M28.1534 24.6487C28.0418 24.6504 27.9309 24.6296 27.8276 24.5876C27.7243 24.5457 27.6307 24.4834 27.5524 24.4046C27.4712 24.3279 27.4064 24.2358 27.362 24.1338C27.3176 24.0318 27.2944 23.9219 27.2938 23.8108C27.2965 23.6994 27.3195 23.5894 27.3618 23.4862C27.4564 23.2834 27.6208 23.1207 27.8256 23.027C28.0363 22.9452 28.2705 22.9452 28.4813 23.027C28.5846 23.0697 28.6774 23.1341 28.7531 23.2157C28.8396 23.288 28.9057 23.3812 28.945 23.4862C29.0179 23.6966 29.0179 23.925 28.945 24.1354C28.8484 24.3367 28.6846 24.4989 28.4813 24.5946C28.3761 24.6318 28.2651 24.6501 28.1534 24.6487Z" fill="white"/>
</svg>
