<svg width="27" height="26" viewBox="0 0 27 26" fill="none" xmlns="http://www.w3.org/2000/svg">
<path d="M21.411 14.6882C21.3826 14.6882 21.3551 14.687 21.3276 14.6852C21.3045 14.687 21.2825 14.6882 21.26 14.6882H3.71433C3.70526 14.6888 3.69501 14.6882 3.68419 14.6882C1.65276 14.6882 0 13.0363 0 11.0043C0 9.75797 0.626809 8.60795 1.65598 7.92963C2.2231 5.41918 4.43858 3.63034 7.04209 3.63034C7.79649 3.63034 8.54093 3.78631 9.23183 4.08596C10.4588 1.61384 13.0149 0 15.8145 0C19.1086 0 22.0197 2.2386 22.8914 5.38026C24.8506 6.01292 26.1841 7.82048 26.1841 9.9157C26.1841 12.5476 24.0432 14.6882 21.411 14.6882Z" fill="white"/>
<path d="M20.0032 26L18.4818 23.3649C18.4815 23.3643 18.4812 23.364 18.4812 23.364L15.3326 17.9103C14.7868 16.9648 14.0239 16.4442 13.1835 16.4442C12.3431 16.4442 11.5799 16.9648 11.0339 17.9103L6.36322 26H20.0032ZM12.0475 18.4955C12.3709 17.936 12.7849 17.6147 13.1835 17.6147C13.5821 17.6147 13.9958 17.936 14.3189 18.4955L17.208 23.5001C16.5657 23.925 15.8095 24.1585 15.0312 24.1585C13.9797 24.1585 12.9912 23.7488 12.2474 23.0055C11.6885 22.4469 10.9458 22.1393 10.1557 22.1393C10.0828 22.1393 10.0105 22.144 9.93855 22.149L12.0475 18.4955Z" fill="white"/>
<path d="M23.2227 22.3317C22.5324 22.3317 21.8833 22.77 21.4417 23.5347L20.3485 25.428L20.6789 26H25.166C25.5675 26 25.9213 25.7976 26.1323 25.4894L25.0039 23.5347C24.5623 22.77 23.9133 22.3317 23.2227 22.3317Z" fill="white"/>
<path d="M1.17051 26H5.74078L7.82283 22.4276C7.82926 22.4218 7.83629 22.4174 7.84302 22.4115L6.28038 19.7047C5.8391 18.9401 5.18976 18.5017 4.49945 18.5017C3.80914 18.5017 3.1598 18.9401 2.71851 19.7047L0.0784244 24.2773C0.0269218 24.3663 0 24.4669 0 24.5699V24.8298C0 25.4759 0.524097 26 1.17051 26Z" fill="white"/>
</svg>
