<svg width="17" height="26" viewBox="0 0 17 26" fill="none" xmlns="http://www.w3.org/2000/svg">
<path d="M16.7913 15.617C15.4828 10.0955 8.44024 0 8.44024 0C8.44024 0 0.945195 10.8967 0.0818602 16.2413C0.0285264 16.5682 3.03146e-07 16.8742 3.03146e-07 17.1553C-0.00124024 22.0401 3.80515 26 8.49999 26C13.1948 26 17 22.0404 17 17.1553C17.0012 16.7008 16.9265 16.183 16.7913 15.617ZM8.44786 2.77309C10.0491 5.21799 12.7791 9.58503 14.3245 13.1857C13.9475 13.1411 13.5406 13.1163 13.0966 13.1163C10.4324 13.1163 8.99361 14.0353 7.83879 14.7735C6.81429 15.4287 6.00439 15.9464 4.24194 15.9464C3.18021 15.9464 2.46208 15.7569 1.83698 15.4659C2.85279 11.8915 6.22903 6.21013 8.44786 2.77309Z" fill="white"/>
</svg>
