<svg width="26" height="26" viewBox="0 0 26 26" fill="none" xmlns="http://www.w3.org/2000/svg">
<path d="M25.9147 11.5172C25.9147 11.4969 25.9106 11.4684 25.9066 11.4359C25.1225 4.91563 19.5772 0 13 0C9.01062 0 5.2975 1.79969 2.80313 4.94812C2.78281 4.9725 2.75844 5.00094 2.74219 5.02938L2.73406 5.04156C1.3 6.88594 0.39 9.07563 0.105625 11.3831C0.0975 11.4156 0.0934375 11.44 0.0934375 11.4684C0.0284375 11.9803 0 12.4963 0 13C0 13.3981 0.01625 13.7841 0.04875 14.1091C0.04875 14.1375 0.0528125 14.1619 0.0528125 14.1862C0.381875 17.7978 2.23437 21.1331 5.13906 23.3512L5.21219 23.4934H5.32594C7.56844 25.1347 10.2172 26 13 26C20.1703 26 26 20.1703 26 13C26 12.4922 25.9716 11.9925 25.9147 11.5172ZM24.8341 13C24.8341 19.5244 19.5244 24.8341 13 24.8341C10.4487 24.8341 8.01937 24.0338 5.96781 22.5103C5.89062 22.4534 5.8175 22.3966 5.74438 22.3356C5.77688 21.3037 5.98812 20.3044 6.13031 19.7478C6.18313 19.5284 6.27656 19.3131 6.4025 19.11L6.435 19.0653C6.81281 18.4641 6.93875 17.7856 6.79656 17.16C6.53656 16.0306 5.57781 15.5553 5.02531 15.3766C4.6475 15.2466 4.32656 15.0516 4.06656 14.7834L3.61969 14.3284C3.00625 13.4794 1.96219 13.4916 1.18625 13.6988C1.17406 13.4794 1.16594 13.2519 1.16594 13C1.16594 12.6019 1.18625 12.1875 1.23094 11.7691C1.27969 11.7691 1.3325 11.7731 1.38125 11.7731C2.16531 11.7731 2.83156 11.5172 2.87219 11.505C2.90469 11.4928 2.92906 11.4725 2.94938 11.4481L3.36375 10.9484C3.62781 10.6356 3.965 10.3837 4.34281 10.2294L4.44438 10.1847C5.19594 9.87594 5.77688 9.295 6.03281 8.60031C6.67469 6.84938 5.00094 5.9475 4.97656 5.93125L3.92031 5.4275C6.14656 2.75437 9.40063 1.2025 12.87 1.16188C12.8578 1.2025 12.8456 1.24719 12.8294 1.29188C12.6791 1.64938 12.1956 2.16937 10.7859 2.59188C10.5787 2.6 9.33562 2.69344 8.70594 3.46937C8.39719 3.85938 8.2875 4.34281 8.38906 4.91563C8.385 5.04563 8.40125 5.59812 8.8075 6.04906C9.13656 6.41062 9.62813 6.60562 10.2619 6.62187C10.5828 6.63 10.9241 6.58531 11.31 6.48375C12.0859 6.26844 14.1294 6.02063 16.3597 8.26313C16.6969 8.62063 17.5947 9.68906 17.6841 10.3269C17.6841 10.3512 17.6922 10.3716 17.7044 10.3878C17.7084 10.4 18.3584 11.6391 19.8088 10.9403C20.1744 10.7656 20.5116 10.4813 20.8122 10.1034C21.3809 9.37625 21.8359 9.19344 22.2787 9.5225C22.4859 9.67281 22.6322 9.92062 22.6931 10.2253C22.7784 10.6356 22.9978 11.2003 23.53 11.5456C23.8306 11.7366 24.1841 11.83 24.6025 11.83C24.6634 11.83 24.7284 11.8259 24.7894 11.8219C24.8178 12.2038 24.8341 12.6019 24.8341 13Z" fill="white"/>
<path d="M17.7816 13.0203C17.7694 13.0122 16.3191 12.1956 16.0509 10.6113C16.0469 10.5869 16.0428 10.5666 16.0306 10.5503C15.8559 10.2375 15.2669 9.72563 14.2878 10.0303C14.0563 10.1034 13.8206 10.1116 13.6094 10.0506L13.0772 9.90031L11.9519 9.22594C11.5822 9.00656 11.2003 8.8725 10.8184 8.83594C10.205 8.77906 9.69314 8.94563 9.32345 9.33156L7.83251 11.2978C7.57658 11.635 7.43439 12.0534 7.43439 12.48C7.43439 12.9959 7.6497 13.5038 8.01532 13.8694L9.02689 14.8688C9.05939 14.8931 9.72564 15.4253 10.396 15.1734C10.9119 14.9784 11.5213 15.2628 11.7569 15.795C11.8463 15.9981 11.9234 16.2378 11.9885 16.51L13.2356 20.7797C13.3697 21.255 13.711 21.6206 14.1416 21.7628C14.2675 21.8034 14.4097 21.8319 14.5681 21.8319C14.881 21.8319 15.2547 21.7141 15.6325 21.3322C15.7422 21.2184 15.8316 21.0844 15.9047 20.9097L16.3434 19.8981C16.3881 19.7803 16.4613 19.6788 16.5425 19.5853L17.0544 19.0206C17.3063 18.7403 17.4444 18.3747 17.4444 18.0009V16.9203C17.4444 16.6319 17.5541 16.3556 17.7491 16.1484L18.4559 15.3806C18.7241 15.0841 18.8663 14.7306 18.8541 14.3813C18.846 13.9709 18.6469 13.4144 17.7816 13.0203Z" fill="white"/>
</svg>
