<svg width="26" height="26" viewBox="0 0 26 26" fill="none" xmlns="http://www.w3.org/2000/svg">
<path d="M2.79552 8.16458C1.75278 8.16458 0.907043 7.31525 0.907043 6.27611C0.907043 5.23696 1.75278 4.38763 2.79552 4.38763C3.83826 4.38763 4.68399 5.23337 4.68399 6.27611C4.68399 7.31885 3.83826 8.16458 2.79552 8.16458ZM2.79552 5.61899C2.43271 5.61899 2.1372 5.91452 2.1372 6.27731C2.1372 6.64011 2.43273 6.93562 2.79552 6.93562C3.15832 6.93562 3.45383 6.6401 3.45383 6.27731C3.45383 5.9145 3.15831 5.61899 2.79552 5.61899Z" fill="white"/>
<path d="M13.0824 1.49745C13.0824 3.49526 10.0875 3.49526 10.0875 1.49745C10.0875 -0.499151 13.0824 -0.499151 13.0824 1.49745Z" fill="white"/>
<path d="M17.5297 13.3457C17.5297 20.3186 7.07336 20.3186 7.07336 13.3457C7.07336 6.37688 17.5297 6.37688 17.5297 13.3457Z" fill="white"/>
<path d="M25.5257 14.5769C25.5257 16.6278 22.4503 16.6278 22.4503 14.5769C22.4503 12.5273 25.5257 12.5273 25.5257 14.5769Z" fill="white"/>
<path d="M3.99801 18.7286C3.99801 21.3947 0 21.3947 0 18.7286C0 16.064 3.99801 16.064 3.99801 18.7286Z" fill="white"/>
<path d="M23.373 4.58167C23.373 7.65798 18.7599 7.65798 18.7599 4.58167C18.7599 1.5072 23.373 1.5072 23.373 4.58167Z" fill="white"/>
<path d="M11.1446 24.6927C11.1446 26.4358 8.53052 26.4358 8.53052 24.6927C8.53052 22.9495 11.1446 22.9495 11.1446 24.6927Z" fill="white"/>
<path d="M19.4555 24.0438C18.45 24.0438 17.6319 23.2257 17.6319 22.2202C17.6319 21.2147 18.45 20.3965 19.4555 20.3965C20.461 20.3965 21.2791 21.2147 21.2791 22.2202C21.2791 23.2257 20.461 24.0438 19.4555 24.0438ZM19.4555 21.6231C19.1264 21.6231 18.8621 21.891 18.8621 22.2166C18.8621 22.5421 19.1299 22.81 19.4555 22.81C19.7811 22.81 20.049 22.5421 20.049 22.2166C20.049 21.891 19.7811 21.6231 19.4555 21.6231Z" fill="white"/>
</svg>
