<svg width="12" height="26" viewBox="0 0 12 26" fill="none" xmlns="http://www.w3.org/2000/svg">
<path d="M9.01322 16.0415C9.69319 16.5221 10.26 17.1475 10.6653 17.8689C11.1058 18.652 11.3574 19.5471 11.3574 20.4922C11.3574 22.0063 10.7181 23.3842 9.68987 24.3825C8.66058 25.3809 7.24136 26 5.67922 26C4.11827 26 2.69893 25.3799 1.6697 24.3825C0.639308 23.3852 0 22.0075 0 20.4922C0 19.5609 0.246061 18.6616 0.693132 17.8668C1.09299 17.1571 1.65322 16.5306 2.34306 16.0436V3.23495C2.34306 2.3463 2.71873 1.53755 3.32182 0.95152C3.92817 0.363363 4.76194 0 5.67697 0C6.59201 0 7.42577 0.3644 8.02993 0.950457C8.63628 1.53861 9.01198 2.34736 9.01198 3.23495V16.0425L9.01322 16.0415ZM10.1798 12.6373C9.86892 12.6373 9.61737 12.3933 9.61737 12.0917C9.61737 11.7902 9.86893 11.5462 10.1798 11.5462H11.4376C11.7485 11.5462 12 11.7902 12 12.0917C12 12.3933 11.7484 12.6373 11.4376 12.6373H10.1798ZM10.1798 5.16897C9.86892 5.16897 9.61737 4.92497 9.61737 4.62342C9.61737 4.32188 9.86893 4.07787 10.1798 4.07787H11.4376C11.7485 4.07787 12 4.32188 12 4.62342C12 4.92497 11.7484 5.16897 11.4376 5.16897H10.1798ZM10.1798 7.65804C9.86892 7.65804 9.61737 7.41404 9.61737 7.11249C9.61737 6.81095 9.86893 6.56695 10.1798 6.56695H11.4376C11.7485 6.56695 12 6.81095 12 7.11249C12 7.41404 11.7484 7.65804 11.4376 7.65804H10.1798ZM10.1798 10.1471C9.86892 10.1471 9.61737 9.90311 9.61737 9.60157C9.61737 9.30002 9.86893 9.05602 10.1798 9.05602H11.4376C11.7485 9.05602 12 9.30002 12 9.60157C12 9.90311 11.7484 10.1471 11.4376 10.1471H10.1798ZM10.1798 15.1253C9.86892 15.1253 9.61737 14.8813 9.61737 14.5797C9.61737 14.2782 9.86893 14.0342 10.1798 14.0342H11.4376C11.7485 14.0342 12 14.2782 12 14.5797C12 14.8813 11.7484 15.1253 11.4376 15.1253H10.1798ZM5.67928 7.84353C6.089 7.84353 6.46029 8.00549 6.72944 8.26655C6.99857 8.52761 7.16554 8.88881 7.16554 9.2852V17.2745C7.74335 17.526 8.24095 17.9202 8.61114 18.4093C9.05273 18.9932 9.31417 19.7146 9.31417 20.4913C9.31417 21.4642 8.90664 22.3464 8.24973 22.9847L8.21787 23.0134C7.56208 23.6346 6.66572 24.0172 5.68038 24.0172C4.67746 24.0172 3.76791 23.6219 3.10993 22.9847C2.45195 22.3464 2.04549 21.4652 2.04549 20.4913C2.04549 19.7135 2.30693 18.9932 2.74852 18.4093C3.11871 17.9202 3.61631 17.526 4.19412 17.2745V9.28519C4.19412 8.88989 4.36219 8.52974 4.63022 8.26867C4.89935 8.00549 5.27172 7.84352 5.68038 7.84352L5.67928 7.84353ZM9.68205 18.3879C9.32286 17.7497 8.80546 17.2052 8.18153 16.8045C8.00687 16.7118 7.88932 16.5318 7.88932 16.3261V3.23402C7.88932 2.64586 7.63997 2.10882 7.24012 1.7199C6.83917 1.33204 6.28664 1.09124 5.67917 1.09124C5.07169 1.09124 4.51807 1.33204 4.11821 1.7199C3.71836 2.10882 3.4701 2.64477 3.4701 3.23402V16.3272C3.46791 16.5052 3.37783 16.6788 3.21306 16.7833C2.56166 17.1935 2.03877 17.7476 1.67848 18.3858C1.32258 19.0187 1.12596 19.7412 1.12596 20.4913C1.12596 21.706 1.63894 22.8099 2.46391 23.6102C3.28778 24.4115 4.42801 24.908 5.68041 24.908C6.93282 24.908 8.07072 24.4104 8.89579 23.6102C9.72076 22.81 10.2337 21.705 10.2337 20.4913C10.2337 19.7295 10.0336 19.0112 9.68205 18.3879Z" fill="white"/>
</svg>
