<svg width="30" height="19" viewBox="0 0 30 19" fill="none" xmlns="http://www.w3.org/2000/svg">
<path d="M18.2146 9.49993C18.2146 10.7811 17.431 11.9356 16.2296 12.4252C15.0295 12.916 13.6458 12.6442 12.7269 11.7391C11.8081 10.8339 11.5322 9.47095 12.0305 8.28866C12.5274 7.10512 13.6994 6.33323 15 6.33323C16.7747 6.33323 18.2146 7.75166 18.2146 9.49993ZM29.4977 11.1994C26.3287 16.0617 20.8651 19 15 19C9.13487 19 3.67126 16.0616 0.502274 11.1994C-0.167425 10.1623 -0.167425 8.83755 0.502274 7.80064C3.67133 2.93833 9.13487 0 15 0C20.8651 0 26.3287 2.9384 29.4977 7.80064C30.1674 8.83772 30.1674 10.1624 29.4977 11.1994ZM20.3577 9.49993C20.3577 8.10001 19.7938 6.75812 18.7879 5.7685C17.7833 4.7776 16.4211 4.22212 15 4.22212C13.5788 4.22212 12.2167 4.7776 11.2121 5.7685C10.2062 6.75809 9.64228 8.09994 9.64228 9.49993C9.64228 10.8999 10.2062 12.2417 11.2121 13.2314C12.2166 14.2223 13.5788 14.7777 15 14.7777C16.4211 14.7777 17.7833 14.2223 18.7879 13.2314C19.7938 12.2418 20.3577 10.8999 20.3577 9.49993Z" fill="white"/>
</svg>
