<svg width="24" height="19" viewBox="0 0 24 19" fill="none" xmlns="http://www.w3.org/2000/svg">
<path d="M20.6337 3.72998C20.1238 3.72998 19.7106 4.14495 19.7106 4.65709C19.7106 5.16923 20.1238 5.58421 20.6337 5.58421C21.4722 5.58421 22.1538 6.26954 22.1538 7.11136C22.1538 7.95318 21.4719 8.63814 20.6337 8.63814H0.923077C0.413169 8.63814 0 9.05312 0 9.56526C0 10.0774 0.413169 10.4924 0.923077 10.4924H20.6337C22.4898 10.4924 24 8.97561 24 7.11136C24 5.24711 22.4898 3.72998 20.6337 3.72998Z" fill="white"/>
<path d="M3.50769 6.7624H13.1228C14.979 6.7624 16.4891 5.24564 16.4891 3.38139C16.4891 1.51714 14.979 0 13.1228 0C12.6129 0 12.1998 0.414978 12.1998 0.927118C12.1998 1.43926 12.6129 1.85424 13.1228 1.85424C13.9614 1.85424 14.643 2.53956 14.643 3.38139C14.643 4.22321 13.961 4.90816 13.1228 4.90816H3.50769C2.99778 4.90816 2.58462 5.32314 2.58462 5.83528C2.58462 6.34742 2.99778 6.7624 3.50769 6.7624Z" fill="white"/>
<path d="M16.8151 12.2376H7.2C6.69009 12.2376 6.27692 12.6526 6.27692 13.1647C6.27692 13.6769 6.69009 14.0918 7.2 14.0918H16.8151C17.6537 14.0918 18.3353 14.7772 18.3353 15.619C18.3353 16.4608 17.6533 17.1458 16.8151 17.1458C16.3052 17.1458 15.8921 17.5607 15.8921 18.0729C15.8921 18.585 16.3052 19 16.8151 19C18.6713 19 20.1814 17.4832 20.1814 15.619C20.1814 13.7547 18.6713 12.2376 16.8151 12.2376Z" fill="white"/>
</svg>
